<svg width="343" height="36" viewBox="0 0 343 36" fill="none" xmlns="http://www.w3.org/2000/svg">
<path d="M342.448 1.28223C342.863 1.28223 343.129 1.71591 342.937 2.0779L332.132 22.4401V34.3555C332.132 34.856 331.72 35.2617 331.212 35.2617H328.55C328.042 35.2617 327.631 34.856 327.631 34.3555V22.4401L316.778 2.07878C316.585 1.71674 316.852 1.28223 317.267 1.28223H320.66C321.082 1.28223 321.467 1.51944 321.651 1.89331L329.856 18.4913L338.061 1.89331C338.246 1.51944 338.631 1.28223 339.053 1.28223H342.448Z" fill="#58DEBE"/>
<path d="M179.066 35.2617C176.817 35.2617 174.795 34.8732 173.002 34.0963C171.241 33.287 169.855 32.1864 168.845 30.7945C168.004 29.6106 167.502 28.2814 167.338 26.8068C167.282 26.3052 167.696 25.8903 168.205 25.8903H171.203C171.669 25.8903 172.053 26.2428 172.153 26.6949C172.428 27.9359 173.037 29.0111 173.98 29.9205C175.154 30.9887 176.849 31.5228 179.066 31.5228C181.186 31.5228 182.849 31.0049 184.055 29.969C185.294 28.9008 185.913 27.5412 185.913 25.8903C185.913 24.5955 185.555 23.5434 184.838 22.7342C184.12 21.9249 183.224 21.3099 182.148 20.889C181.072 20.4682 179.621 20.015 177.795 19.5295C175.545 18.9468 173.735 18.3641 172.366 17.7814C171.029 17.1988 169.872 16.2924 168.893 15.0623C167.948 13.7998 167.475 12.1166 167.475 10.0125C167.475 8.16732 167.948 6.53259 168.893 5.10828C169.839 3.68397 171.159 2.58336 172.855 1.80646C174.583 1.02956 176.556 0.641113 178.773 0.641113C181.968 0.641113 184.577 1.4342 186.598 3.02037C188.388 4.40267 189.497 6.17832 189.926 8.34733C190.029 8.87088 189.605 9.33267 189.067 9.33267H185.982C185.524 9.33267 185.147 8.98965 185.013 8.55431C184.713 7.57866 184.084 6.70513 183.126 5.93374C181.919 4.93024 180.322 4.42849 178.333 4.42849C176.474 4.42849 174.958 4.91406 173.784 5.88518C172.61 6.82393 172.024 8.15113 172.024 9.86679C172.024 11.0969 172.366 12.1004 173.051 12.8773C173.768 13.6542 174.632 14.253 175.643 14.6738C176.686 15.0623 178.137 15.5155 179.996 16.0334C182.245 16.6485 184.055 17.2635 185.424 17.8786C186.794 18.4612 187.968 19.3838 188.946 20.6463C189.924 21.8763 190.413 23.5596 190.413 25.6961C190.413 27.347 189.973 28.9008 189.093 30.3575C188.212 31.8142 186.908 32.9957 185.18 33.9021C183.452 34.8085 181.414 35.2617 179.066 35.2617Z" fill="#58DEBE"/>
<path d="M253.564 0C243.826 0 235.933 8.08742 235.933 17.9514C235.933 22.2178 237.41 26.1518 239.873 29.2429C239.653 31.7974 237.039 33.6789 237.039 33.6789C237.039 33.6789 241.519 35.1841 244.409 33.2848C247.078 34.9444 250.211 35.9028 253.564 35.9028C263.301 35.9028 271.195 27.8154 271.195 17.9514C271.195 8.08742 263.301 0 253.564 0Z" fill="#58DEBE"/>
<path d="M224.766 1.28223C225.268 1.28223 225.675 1.68792 225.675 2.18838V3.98365C225.675 4.4841 225.268 4.8898 224.766 4.8898H216.384V34.3555C216.384 34.856 215.977 35.2617 215.475 35.2617H212.843C212.342 35.2617 211.935 34.856 211.935 34.3555V4.8898H203.504C203.002 4.8898 202.595 4.4841 202.595 3.98365V2.18838C202.595 1.68792 203.002 1.28223 203.504 1.28223H224.766Z" fill="#58DEBE"/>
<path d="M303.41 35.2617C303.018 35.2617 302.655 35.056 302.458 34.7216L294.581 21.3676H289.15V34.3555C289.15 34.856 288.739 35.2617 288.233 35.2617H285.575C285.068 35.2617 284.657 34.856 284.657 34.3555V2.18838C284.657 1.68792 285.068 1.28223 285.575 1.28223H295.766C298.366 1.28223 300.555 1.72099 302.332 2.5985C304.143 3.47602 305.492 4.66229 306.381 6.15732C307.27 7.65235 307.714 9.35864 307.714 11.2762C307.714 13.6162 307.023 15.68 305.64 17.4676C304.291 19.2551 302.25 20.4414 299.518 21.0264L307.659 34.4385C307.879 34.8009 307.614 35.2617 307.186 35.2617H303.41ZM289.15 17.8088H295.766C298.202 17.8088 300.028 17.2238 301.246 16.0538C302.464 14.8512 303.073 13.2587 303.073 11.2762C303.073 9.26114 302.464 7.70111 301.246 6.59608C300.061 5.49106 298.235 4.93855 295.766 4.93855H289.15V17.8088Z" fill="#58DEBE"/>
<path d="M19.0586 35.2617C18.7485 35.2617 18.4529 35.1313 18.2451 34.9028L4.47091 19.7588V34.3555C4.47091 34.856 4.06205 35.2617 3.5577 35.2617H0.913213C0.408859 35.2617 0 34.856 0 34.3555V2.18838C0 1.68792 0.40886 1.28223 0.913213 1.28223H3.5577C4.06205 1.28223 4.47091 1.68792 4.47091 2.18838V17.0288L18.2938 1.64594C18.5017 1.41455 18.7993 1.28223 19.1117 1.28223H23.0354C23.5105 1.28223 23.7605 1.84133 23.4415 2.19084L8.7453 18.2963L23.5764 34.3506C23.8985 34.6993 23.6492 35.2617 23.1725 35.2617H19.0586Z" fill="#58DEBE"/>
<path d="M117.732 1.28223C121.467 1.28223 124.695 1.98099 127.414 3.37852C130.167 4.74355 132.264 6.70983 133.705 9.27739C135.18 11.8449 135.917 14.8675 135.917 18.3451C135.917 21.8226 135.18 24.8452 133.705 27.4127C132.264 29.9478 130.167 31.8978 127.414 33.2629C124.695 34.5954 121.467 35.2617 117.732 35.2617H107.98C107.476 35.2617 107.067 34.856 107.067 34.3555V2.18838C107.067 1.68792 107.476 1.28223 107.98 1.28223H117.732ZM117.732 31.6053C122.155 31.6053 125.53 30.4516 127.857 28.144C130.183 25.804 131.346 22.5377 131.346 18.3451C131.346 14.12 130.167 10.8212 127.807 8.44862C125.481 6.07607 122.123 4.8898 117.732 4.8898H111.539V31.6053H117.732Z" fill="#58DEBE"/>
<path d="M89.115 34.9808C89.115 35.49 88.7061 35.9028 88.2017 35.9028H85.2336C84.8652 35.9028 84.5215 35.716 84.3187 35.4055L66.6594 8.37498V34.9808C66.6594 35.49 66.2505 35.9028 65.7461 35.9028H63.1013C62.5968 35.9028 62.1879 35.49 62.1879 34.9808V2.20415C62.1879 1.69499 62.5968 1.28223 63.1013 1.28223H66.0699C66.438 1.28223 66.7815 1.46872 66.9844 1.77872L84.6435 28.7604V2.20415C84.6435 1.69499 85.0525 1.28223 85.5569 1.28223H88.2017C88.7061 1.28223 89.115 1.69499 89.115 2.20415V34.9808Z" fill="#58DEBE"/>
<path d="M42.0385 1.28223C42.5448 1.28223 42.9552 1.68792 42.9552 2.18838V34.3555C42.9552 34.856 42.5448 35.2617 42.0385 35.2617H39.384C38.8778 35.2617 38.4673 34.856 38.4673 34.3555V2.18838C38.4673 1.68792 38.8778 1.28223 39.384 1.28223H42.0385Z" fill="#58DEBE"/>
</svg>
