<svg width="210" height="15" viewBox="0 0 210 15" fill="none" xmlns="http://www.w3.org/2000/svg">
<path d="M4.60299 7.61029C4.60299 7.66282 4.57673 7.70483 4.52421 7.73634C4.4822 7.76786 4.42967 7.79412 4.36665 7.81513C4.31413 7.83613 4.25636 7.8624 4.19333 7.89391C4.13031 7.91492 4.08304 7.94118 4.05152 7.97269L4.16182 8.71324C4.22484 9.1229 4.27736 9.52206 4.31938 9.91071C4.3719 10.2994 4.39816 10.667 4.39816 11.0137C4.39816 11.2868 4.36665 11.5336 4.30362 11.7542C4.2511 11.9643 4.15131 12.0693 4.00425 12.0693C3.93072 12.0693 3.86245 11.98 3.79942 11.8015C3.7469 11.6124 3.69963 11.4023 3.65762 11.1712C3.6261 10.9296 3.59984 10.6933 3.57883 10.4622C3.56833 10.2206 3.56308 10.0473 3.56308 9.94223C3.56308 9.8687 3.55783 9.75315 3.54732 9.59559C3.53682 9.42752 3.52106 9.2542 3.50005 9.07563C3.47904 8.88655 3.45804 8.71324 3.43703 8.55567C3.41602 8.3876 3.40026 8.26155 3.38976 8.17752C3.21119 8.18803 2.96959 8.21428 2.66497 8.2563C2.36035 8.28782 1.98745 8.36135 1.54627 8.47689V8.66597C1.54627 8.89706 1.55678 9.15441 1.57778 9.43803C1.59879 9.71113 1.6198 9.99475 1.64081 10.2889C1.67232 10.5725 1.69858 10.8613 1.71959 11.1555C1.7406 11.4391 1.7511 11.7122 1.7511 11.9748C1.7511 12.0798 1.7406 12.1639 1.71959 12.2269C1.69858 12.3004 1.65131 12.3372 1.57778 12.3372C1.45173 12.3372 1.35194 12.2742 1.27841 12.1481C1.21539 12.0221 1.16812 11.875 1.13661 11.7069C1.10509 11.5284 1.07883 11.3445 1.05783 11.1555C1.04732 10.9664 1.03682 10.8088 1.02631 10.6828C0.984296 10.4097 0.947531 10.0945 0.916019 9.73739C0.89501 9.36975 0.874002 8.99685 0.852994 8.6187C0.810977 8.6187 0.758456 8.60819 0.69543 8.58718C0.632405 8.55567 0.56938 8.52416 0.506355 8.49265C0.44333 8.45063 0.390809 8.40861 0.348792 8.3666C0.306775 8.32458 0.285767 8.27731 0.285767 8.22479C0.285767 8.09874 0.34354 7.99895 0.459086 7.92542C0.574632 7.84139 0.700683 7.77311 0.837237 7.72059C0.826733 7.62605 0.821481 7.52626 0.821481 7.42122C0.821481 7.30567 0.821481 7.11134 0.821481 6.83824C0.821481 6.72269 0.821481 6.55462 0.821481 6.33403C0.821481 6.10294 0.821481 5.84559 0.821481 5.56198C0.821481 5.26786 0.821481 4.94748 0.821481 4.60084C0.831985 4.2542 0.837237 3.90231 0.837237 3.54517C0.847741 3.46113 0.874002 3.36134 0.916019 3.2458C0.958036 3.11975 1.02631 3.05672 1.12085 3.05672C1.19438 3.05672 1.25741 3.08824 1.30993 3.15126C1.36245 3.20378 1.40446 3.27206 1.43598 3.35609C1.46749 3.44013 1.4885 3.52941 1.499 3.62395C1.52001 3.70798 1.53051 3.78151 1.53051 3.84454V7.61029C1.62505 7.61029 1.7511 7.60504 1.90867 7.59454C2.06623 7.58403 2.22904 7.57353 2.39711 7.56303C2.56518 7.54202 2.72799 7.52101 2.88556 7.5C3.05362 7.47899 3.19018 7.45798 3.29522 7.43698L2.93283 4.12815C2.92232 4.05462 2.91182 3.97584 2.90131 3.89181C2.90131 3.80777 2.90131 3.7395 2.90131 3.68697C2.90131 3.47689 2.92757 3.30882 2.98009 3.18277C3.04312 3.04622 3.13241 2.97794 3.24795 2.97794C3.39501 2.97794 3.4843 3.04622 3.51581 3.18277C3.54732 3.31933 3.56833 3.51891 3.57883 3.78151C3.58934 3.94958 3.59984 4.11765 3.61035 4.28571C3.62085 4.44328 3.63661 4.60084 3.65762 4.7584L4.02001 7.42122C4.14606 7.42122 4.27211 7.43172 4.39816 7.45273C4.53472 7.46324 4.60299 7.51576 4.60299 7.61029Z" fill="#050608"/>
<path d="M9.45335 8.69748C9.45335 8.92857 9.42184 9.14916 9.35881 9.35924C9.29579 9.56933 9.21175 9.75315 9.10671 9.91071C9.00167 10.0683 8.87562 10.1943 8.72856 10.2889C8.59201 10.3729 8.4397 10.4149 8.27163 10.4149C7.97751 10.4149 7.74642 10.3309 7.57835 10.1628C7.41028 9.99475 7.27898 9.80042 7.18444 9.57983C7.10041 9.35924 7.04264 9.13866 7.01112 8.91807C6.99011 8.68698 6.97961 8.51366 6.97961 8.39811C6.97961 8.20903 7.00587 7.99895 7.05839 7.76786C7.12142 7.52626 7.2002 7.30567 7.29474 7.10609C7.39978 6.90651 7.51533 6.73845 7.64138 6.60189C7.76743 6.46534 7.89873 6.39706 8.03528 6.39706C8.06679 6.39706 8.11406 6.40756 8.17709 6.42857C8.25062 6.44958 8.32415 6.48109 8.39768 6.52311C8.47121 6.56513 8.53423 6.61765 8.58675 6.68067C8.64978 6.7437 8.6918 6.81723 8.7128 6.90126C8.82835 6.91176 8.9439 6.95378 9.05944 7.02731C9.17499 7.10084 9.23801 7.15861 9.24852 7.20063C9.33255 7.47374 9.38507 7.74685 9.40608 8.01996C9.43759 8.29307 9.45335 8.51891 9.45335 8.69748ZM8.74432 8.41387C8.74432 8.2563 8.72856 8.09349 8.69705 7.92542C8.66553 7.74685 8.60251 7.56828 8.50797 7.38971C8.48696 7.40021 8.4607 7.40546 8.42919 7.40546C8.38717 7.40546 8.35041 7.40021 8.3189 7.38971C8.29789 7.3792 8.27688 7.37395 8.25587 7.37395C8.12982 7.37395 8.03003 7.41071 7.9565 7.48424C7.88297 7.54727 7.8252 7.63656 7.78318 7.7521C7.75167 7.85714 7.73066 7.97269 7.72016 8.09874C7.70965 8.22479 7.7044 8.34559 7.7044 8.46113C7.7044 8.57668 7.70965 8.70798 7.72016 8.85504C7.73066 8.9916 7.75167 9.1229 7.78318 9.24895C7.8252 9.375 7.87772 9.48529 7.94074 9.57983C8.00377 9.66387 8.0878 9.70588 8.19285 9.70588C8.29789 9.70588 8.38717 9.65336 8.4607 9.54832C8.53423 9.43277 8.59201 9.30147 8.63402 9.15441C8.67604 9.00735 8.7023 8.86555 8.7128 8.72899C8.73381 8.58193 8.74432 8.47689 8.74432 8.41387Z" fill="#050608"/>
<path d="M16.4062 10.1628C16.4062 10.2258 16.3852 10.2889 16.3432 10.3519C16.3011 10.4149 16.2486 10.4727 16.1856 10.5252C16.1331 10.5777 16.0701 10.625 15.9965 10.667C15.9335 10.6985 15.8757 10.7143 15.8232 10.7143C15.6446 10.7143 15.4135 10.6775 15.1299 10.604C14.8568 10.52 14.6362 10.3939 14.4682 10.2258C14.2896 10.0473 14.132 9.83718 13.9955 9.59559C13.8589 9.34349 13.7066 8.97584 13.5385 8.49265C13.423 8.95483 13.2864 9.41177 13.1289 9.86345C12.9818 10.3151 12.7402 10.73 12.4041 11.1082C12.3831 11.1292 12.3516 11.1397 12.3095 11.1397C12.236 11.1397 12.1572 11.1029 12.0732 11.0294C11.9892 10.9559 11.9472 10.8824 11.9472 10.8088C11.9472 10.7353 11.9367 10.5672 11.9156 10.3046C11.9051 10.0315 11.8894 9.73214 11.8684 9.40651C11.8474 9.07038 11.8264 8.73424 11.8053 8.39811C11.7948 8.05147 11.7896 7.76786 11.7896 7.54727C11.7896 7.44223 11.7948 7.30567 11.8053 7.13761C11.8159 6.95903 11.8474 6.80672 11.8999 6.68067C11.9104 6.65966 11.9472 6.61765 12.0102 6.55462C12.0837 6.4916 12.1625 6.46008 12.2465 6.46008C12.3201 6.46008 12.3621 6.50735 12.3726 6.60189C12.3831 6.69643 12.3883 6.80147 12.3883 6.91702V9.40651C12.3883 9.45903 12.3936 9.53256 12.4041 9.6271C12.4251 9.72164 12.4514 9.78992 12.4829 9.83193C12.5984 9.57983 12.7035 9.28571 12.798 8.94958C12.903 8.60294 13.0028 8.27731 13.0974 7.97269C13.1919 7.65756 13.2864 7.39496 13.381 7.18487C13.4755 6.96429 13.5701 6.85399 13.6646 6.85399C13.7696 6.85399 13.8537 6.875 13.9167 6.91702C13.9797 6.95903 14.0322 7.04307 14.0743 7.16912C14.1268 7.47374 14.1688 7.74685 14.2003 7.98845C14.2318 8.21954 14.2686 8.42962 14.3106 8.6187C14.3631 8.80777 14.4314 8.98635 14.5154 9.15441C14.61 9.31198 14.736 9.45903 14.8936 9.59559C15.0406 9.73214 15.2035 9.83193 15.382 9.89496C15.5711 9.95798 15.7339 9.9895 15.8705 9.9895C15.9335 9.9895 16.0018 9.97899 16.0753 9.95798C16.1488 9.92647 16.2014 9.91071 16.2329 9.91071C16.2749 9.91071 16.3116 9.94748 16.3432 10.021C16.3852 10.0945 16.4062 10.1418 16.4062 10.1628Z" fill="#050608"/>
<path d="M22.2291 10.4464C22.2396 10.4674 22.2449 10.499 22.2449 10.541C22.2449 10.604 22.1976 10.6985 22.1031 10.8246C22.0716 10.8666 22.0033 10.9349 21.8982 11.0294C21.7932 11.1239 21.6514 11.2185 21.4728 11.313C21.2943 11.4076 21.0737 11.4916 20.8111 11.5651C20.559 11.6387 20.2596 11.6754 19.9129 11.6754C19.6714 11.6754 19.435 11.6229 19.2039 11.5179C18.9728 11.4023 18.768 11.2395 18.5894 11.0294C18.4108 10.8088 18.2638 10.541 18.1482 10.2258C18.0327 9.90021 17.9749 9.52206 17.9749 9.09139C17.9749 8.68172 18.0274 8.29832 18.1325 7.94118C18.2375 7.58403 18.3688 7.26891 18.5264 6.9958C18.6945 6.72269 18.8783 6.50735 19.0779 6.34979C19.2774 6.19223 19.4718 6.11345 19.6608 6.11345C19.8289 6.11345 19.997 6.15021 20.165 6.22374C20.3436 6.28676 20.5012 6.3708 20.6377 6.47584C20.7848 6.58088 20.9003 6.70168 20.9844 6.83824C21.0684 6.96429 21.1104 7.09559 21.1104 7.23214C21.1104 7.38971 21.0369 7.55252 20.8898 7.72059C20.7533 7.88866 20.5852 8.04622 20.3856 8.19328C20.1861 8.32983 19.9865 8.44538 19.7869 8.53992C19.5873 8.62395 19.4298 8.66597 19.3142 8.66597C19.2512 8.66597 19.1934 8.63971 19.1409 8.58718C19.0989 8.52416 19.0779 8.45063 19.0779 8.3666C19.0779 8.21954 19.1409 8.10399 19.2669 8.01996C19.4035 7.93592 19.5506 7.8624 19.7081 7.79937C19.8657 7.72584 20.0075 7.64181 20.1335 7.54727C20.2701 7.45273 20.3384 7.32143 20.3384 7.15336C20.3384 7.13235 20.3121 7.07983 20.2596 6.9958C20.2071 6.91176 20.0653 6.86975 19.8342 6.86975C19.7291 6.86975 19.6083 6.93277 19.4718 7.05882C19.3352 7.17437 19.2039 7.33718 19.0779 7.54727C18.9518 7.74685 18.8468 7.98844 18.7627 8.27206C18.6787 8.54517 18.6367 8.84454 18.6367 9.17017C18.6367 9.44328 18.684 9.69013 18.7785 9.91071C18.8835 10.1313 19.0148 10.3204 19.1724 10.4779C19.33 10.625 19.5138 10.7405 19.7239 10.8246C19.934 10.9086 20.1493 10.9506 20.3699 10.9506C20.5274 10.9506 20.6955 10.9191 20.8741 10.8561C21.0632 10.7826 21.2365 10.709 21.394 10.6355C21.5621 10.5515 21.7039 10.4779 21.8195 10.4149C21.9455 10.3414 22.0243 10.3046 22.0558 10.3046C22.0873 10.3046 22.1188 10.3204 22.1503 10.3519C22.1924 10.3834 22.2186 10.4149 22.2291 10.4464Z" fill="#050608"/>
<path d="M27.5175 10.021C27.5175 10.1996 27.4544 10.3571 27.3284 10.4937C27.2128 10.6197 27.0605 10.73 26.8715 10.8246C26.6929 10.9086 26.4933 10.9769 26.2727 11.0294C26.0521 11.0819 25.842 11.124 25.6425 11.1555C25.4429 11.1765 25.2643 11.1922 25.1067 11.2027C24.9597 11.2027 24.8651 11.2027 24.8231 11.2027C24.592 11.2027 24.4135 11.166 24.2874 11.0924C24.1614 11.0189 24.0983 10.8876 24.0983 10.6985C24.0983 10.6355 24.1036 10.583 24.1141 10.541C24.1246 10.4884 24.1666 10.4622 24.2401 10.4622C24.2717 10.4622 24.3242 10.4727 24.3977 10.4937C24.4712 10.5042 24.529 10.5095 24.571 10.5095C24.613 10.5095 24.7443 10.5042 24.9649 10.4937C25.196 10.4727 25.4376 10.4412 25.6897 10.3992C25.9523 10.3571 26.1834 10.2994 26.383 10.2258C26.5931 10.1418 26.6981 10.0368 26.6981 9.91071C26.6981 9.88971 26.5878 9.82668 26.3672 9.72164C26.1572 9.60609 25.8368 9.41702 25.4061 9.15441C25.07 8.94433 24.8336 8.73424 24.6971 8.52416C24.5605 8.30357 24.4922 8.00945 24.4922 7.64181C24.4922 7.41071 24.5395 7.22164 24.6341 7.07458C24.7391 6.92752 24.8757 6.81198 25.0437 6.72794C25.2223 6.64391 25.4219 6.58613 25.6425 6.55462C25.8736 6.51261 26.1151 6.4916 26.3672 6.4916C26.3883 6.4916 26.4513 6.5021 26.5563 6.52311C26.6719 6.54412 26.7927 6.58088 26.9187 6.6334C27.0448 6.67542 27.1551 6.73319 27.2496 6.80672C27.3546 6.86975 27.4072 6.94328 27.4072 7.02731C27.4072 7.04832 27.3862 7.07983 27.3441 7.12185C27.3126 7.16387 27.2549 7.24265 27.1708 7.35819C27.1393 7.34769 27.0815 7.33193 26.9975 7.31092C26.924 7.28992 26.8347 7.26891 26.7296 7.2479C26.6351 7.21639 26.5353 7.19538 26.4303 7.18487C26.3252 7.16387 26.2412 7.15336 26.1782 7.15336C25.9051 7.15336 25.6845 7.20588 25.5164 7.31092C25.3483 7.40546 25.2643 7.59454 25.2643 7.87815C25.2643 8.01471 25.3168 8.14076 25.4219 8.2563C25.5374 8.37185 25.6792 8.48214 25.8473 8.58718C26.0154 8.68172 26.1939 8.78151 26.383 8.88655C26.5826 8.98109 26.7664 9.08613 26.9345 9.20168C27.1025 9.31723 27.2391 9.44328 27.3441 9.57983C27.4597 9.70588 27.5175 9.85294 27.5175 10.021Z" fill="#050608"/>
<path d="M33.671 4.97899C33.5345 5.13655 33.3402 5.29412 33.0881 5.45168C32.8359 5.59874 32.5839 5.73529 32.3317 5.86134C32.0796 5.9874 31.8591 6.09769 31.67 6.19223C31.4809 6.27626 31.3864 6.33403 31.3864 6.36555C31.3864 6.39706 31.4074 6.4916 31.4494 6.64916C31.4914 6.80672 31.5387 6.9958 31.5912 7.21639C31.6542 7.42647 31.7173 7.64706 31.7803 7.87815C31.8433 8.10924 31.8958 8.31408 31.9378 8.49265C31.9588 8.59769 31.9851 8.73424 32.0166 8.90231C32.0481 9.07038 32.0744 9.23845 32.0954 9.40651C32.1269 9.57458 32.1532 9.72689 32.1742 9.86345C32.1952 9.9895 32.2057 10.0578 32.2057 10.0683C32.2057 10.2258 32.1794 10.3887 32.1269 10.5567C32.0744 10.7248 31.9904 10.8088 31.8748 10.8088C31.8118 10.8088 31.754 10.7826 31.7015 10.73C31.649 10.6775 31.6017 10.6197 31.5597 10.5567C31.5177 10.4832 31.4862 10.4149 31.4651 10.3519C31.4441 10.2889 31.4336 10.2416 31.4336 10.2101C31.4336 10.1891 31.4336 10.1576 31.4336 10.1155C31.4441 10.0735 31.4494 10.0263 31.4494 9.97374C31.4494 9.77416 31.4179 9.48529 31.3549 9.10714C31.3338 8.9916 31.2918 8.81303 31.2288 8.57143C31.1658 8.32983 31.1028 8.08298 31.0397 7.83088C30.9662 7.53676 30.8822 7.21639 30.7876 6.86975C30.7456 6.72269 30.7194 6.64916 30.7088 6.64916C30.6353 6.64916 30.5093 6.69643 30.3307 6.79097C30.1626 6.875 29.9683 6.98529 29.7477 7.12185C29.5271 7.2479 29.296 7.38971 29.0544 7.54727C28.8128 7.69433 28.587 7.83613 28.3769 7.97269C28.1668 8.09874 27.9883 8.20903 27.8412 8.30357C27.6836 8.38761 27.5891 8.42962 27.5576 8.42962C27.421 8.42962 27.3107 8.38235 27.2267 8.28782C27.1427 8.19328 27.1007 8.08823 27.1007 7.97269C27.1007 7.90966 27.1899 7.82038 27.3685 7.70483C27.5366 7.57878 27.7519 7.44223 28.0145 7.29517C28.2666 7.14811 28.545 6.9958 28.8496 6.83824C29.1437 6.68067 29.4168 6.53887 29.6689 6.41282C29.9315 6.28676 30.1469 6.18172 30.3149 6.09769C30.4935 6.01366 30.5828 5.97164 30.5828 5.97164C30.4883 5.48845 30.4095 5.05777 30.3465 4.67962C30.2939 4.35399 30.2414 4.05462 30.1889 3.78151C30.1469 3.5084 30.1259 3.36134 30.1259 3.34034C30.1259 3.20378 30.1521 3.10399 30.2046 3.04097C30.2677 2.96744 30.3359 2.93067 30.4095 2.93067C30.525 2.93067 30.5986 3.00945 30.6301 3.16702C30.7456 3.73424 30.8507 4.23845 30.9452 4.67962C31.0502 5.1208 31.15 5.47794 31.2446 5.75105C31.3391 5.73004 31.5019 5.67227 31.733 5.57773C31.9641 5.47269 32.2057 5.36239 32.4578 5.24685C32.7099 5.1313 32.9357 5.03151 33.1353 4.94748C33.3454 4.85294 33.4662 4.80567 33.4977 4.80567C33.5607 4.80567 33.5975 4.82668 33.608 4.8687C33.629 4.91071 33.65 4.94748 33.671 4.97899Z" fill="#050608"/>
<path d="M46.692 10.4464C46.7025 10.4674 46.7078 10.499 46.7078 10.541C46.7078 10.604 46.6605 10.6985 46.566 10.8246C46.5345 10.8666 46.4662 10.9349 46.3611 11.0294C46.2561 11.1239 46.1143 11.2185 45.9357 11.313C45.7571 11.4076 45.5366 11.4916 45.274 11.5651C45.0219 11.6387 44.7225 11.6754 44.3758 11.6754C44.1342 11.6754 43.8979 11.6229 43.6668 11.5179C43.4357 11.4023 43.2309 11.2395 43.0523 11.0294C42.8737 10.8088 42.7267 10.541 42.6111 10.2258C42.4956 9.90021 42.4378 9.52206 42.4378 9.09139C42.4378 8.68172 42.4903 8.29832 42.5954 7.94118C42.7004 7.58403 42.8317 7.26891 42.9893 6.9958C43.1574 6.72269 43.3412 6.50735 43.5408 6.34979C43.7403 6.19223 43.9347 6.11345 44.1237 6.11345C44.2918 6.11345 44.4599 6.15021 44.6279 6.22374C44.8065 6.28676 44.9641 6.3708 45.1006 6.47584C45.2477 6.58088 45.3632 6.70168 45.4473 6.83824C45.5313 6.96429 45.5733 7.09559 45.5733 7.23214C45.5733 7.38971 45.4998 7.55252 45.3527 7.72059C45.2162 7.88866 45.0481 8.04622 44.8485 8.19328C44.6489 8.32983 44.4494 8.44538 44.2498 8.53992C44.0502 8.62395 43.8926 8.66597 43.7771 8.66597C43.7141 8.66597 43.6563 8.63971 43.6038 8.58718C43.5618 8.52416 43.5408 8.45063 43.5408 8.3666C43.5408 8.21954 43.6038 8.10399 43.7298 8.01996C43.8664 7.93592 44.0134 7.8624 44.171 7.79937C44.3286 7.72584 44.4704 7.64181 44.5964 7.54727C44.733 7.45273 44.8013 7.32143 44.8013 7.15336C44.8013 7.13235 44.775 7.07983 44.7225 6.9958C44.67 6.91176 44.5282 6.86975 44.2971 6.86975C44.192 6.86975 44.0712 6.93277 43.9347 7.05882C43.7981 7.17437 43.6668 7.33718 43.5408 7.54727C43.4147 7.74685 43.3097 7.98844 43.2256 8.27206C43.1416 8.54517 43.0996 8.84454 43.0996 9.17017C43.0996 9.44328 43.1469 9.69013 43.2414 9.91071C43.3464 10.1313 43.4777 10.3204 43.6353 10.4779C43.7929 10.625 43.9767 10.7405 44.1868 10.8246C44.3969 10.9086 44.6122 10.9506 44.8328 10.9506C44.9903 10.9506 45.1584 10.9191 45.337 10.8561C45.5261 10.7826 45.6994 10.709 45.8569 10.6355C46.025 10.5515 46.1668 10.4779 46.2824 10.4149C46.4084 10.3414 46.4872 10.3046 46.5187 10.3046C46.5502 10.3046 46.5817 10.3204 46.6132 10.3519C46.6553 10.3834 46.6815 10.4149 46.692 10.4464Z" fill="#050608"/>
<path d="M51.9804 10.021C51.9804 10.1996 51.9173 10.3571 51.7913 10.4937C51.6757 10.6197 51.5234 10.73 51.3343 10.8246C51.1558 10.9086 50.9562 10.9769 50.7356 11.0294C50.515 11.0819 50.3049 11.124 50.1054 11.1555C49.9058 11.1765 49.7272 11.1922 49.5696 11.2027C49.4226 11.2027 49.328 11.2027 49.286 11.2027C49.0549 11.2027 48.8764 11.166 48.7503 11.0924C48.6243 11.0189 48.5612 10.8876 48.5612 10.6985C48.5612 10.6355 48.5665 10.583 48.577 10.541C48.5875 10.4884 48.6295 10.4622 48.703 10.4622C48.7346 10.4622 48.7871 10.4727 48.8606 10.4937C48.9341 10.5042 48.9919 10.5095 49.0339 10.5095C49.0759 10.5095 49.2072 10.5042 49.4278 10.4937C49.6589 10.4727 49.9005 10.4412 50.1526 10.3992C50.4152 10.3571 50.6463 10.2994 50.8459 10.2258C51.056 10.1418 51.161 10.0368 51.161 9.91071C51.161 9.88971 51.0507 9.82668 50.8301 9.72164C50.6201 9.60609 50.2997 9.41702 49.869 9.15441C49.5329 8.94433 49.2965 8.73424 49.16 8.52416C49.0234 8.30357 48.9551 8.00945 48.9551 7.64181C48.9551 7.41071 49.0024 7.22164 49.097 7.07458C49.202 6.92752 49.3385 6.81198 49.5066 6.72794C49.6852 6.64391 49.8848 6.58613 50.1054 6.55462C50.3364 6.51261 50.578 6.4916 50.8301 6.4916C50.8512 6.4916 50.9142 6.5021 51.0192 6.52311C51.1348 6.54412 51.2556 6.58088 51.3816 6.6334C51.5077 6.67542 51.618 6.73319 51.7125 6.80672C51.8175 6.86975 51.8701 6.94328 51.8701 7.02731C51.8701 7.04832 51.849 7.07983 51.807 7.12185C51.7755 7.16387 51.7177 7.24265 51.6337 7.35819C51.6022 7.34769 51.5444 7.33193 51.4604 7.31092C51.3869 7.28992 51.2976 7.26891 51.1925 7.2479C51.098 7.21639 50.9982 7.19538 50.8932 7.18487C50.7881 7.16387 50.7041 7.15336 50.6411 7.15336C50.368 7.15336 50.1474 7.20588 49.9793 7.31092C49.8112 7.40546 49.7272 7.59454 49.7272 7.87815C49.7272 8.01471 49.7797 8.14076 49.8848 8.2563C50.0003 8.37185 50.1421 8.48214 50.3102 8.58718C50.4783 8.68172 50.6568 8.78151 50.8459 8.88655C51.0455 8.98109 51.2293 9.08613 51.3974 9.20168C51.5654 9.31723 51.702 9.44328 51.807 9.57983C51.9226 9.70588 51.9804 9.85294 51.9804 10.021Z" fill="#050608"/>
<path d="M57.5037 10.021C57.5037 10.1996 57.4406 10.3571 57.3146 10.4937C57.1991 10.6197 57.0467 10.73 56.8577 10.8246C56.6791 10.9086 56.4795 10.9769 56.2589 11.0294C56.0383 11.0819 55.8283 11.124 55.6287 11.1555C55.4291 11.1765 55.2505 11.1922 55.093 11.2027C54.9459 11.2027 54.8514 11.2027 54.8093 11.2027C54.5783 11.2027 54.3997 11.166 54.2736 11.0924C54.1476 11.0189 54.0846 10.8876 54.0846 10.6985C54.0846 10.6355 54.0898 10.583 54.1003 10.541C54.1108 10.4884 54.1528 10.4622 54.2264 10.4622C54.2579 10.4622 54.3104 10.4727 54.3839 10.4937C54.4575 10.5042 54.5152 10.5095 54.5572 10.5095C54.5993 10.5095 54.7306 10.5042 54.9511 10.4937C55.1822 10.4727 55.4238 10.4412 55.6759 10.3992C55.9385 10.3571 56.1696 10.2994 56.3692 10.2258C56.5793 10.1418 56.6843 10.0368 56.6843 9.91071C56.6843 9.88971 56.574 9.82668 56.3535 9.72164C56.1434 9.60609 55.823 9.41702 55.3923 9.15441C55.0562 8.94433 54.8198 8.73424 54.6833 8.52416C54.5467 8.30357 54.4785 8.00945 54.4785 7.64181C54.4785 7.41071 54.5257 7.22164 54.6203 7.07458C54.7253 6.92752 54.8619 6.81198 55.0299 6.72794C55.2085 6.64391 55.4081 6.58613 55.6287 6.55462C55.8598 6.51261 56.1014 6.4916 56.3535 6.4916C56.3745 6.4916 56.4375 6.5021 56.5425 6.52311C56.6581 6.54412 56.7789 6.58088 56.9049 6.6334C57.031 6.67542 57.1413 6.73319 57.2358 6.80672C57.3409 6.86975 57.3934 6.94328 57.3934 7.02731C57.3934 7.04832 57.3724 7.07983 57.3304 7.12185C57.2988 7.16387 57.2411 7.24265 57.157 7.35819C57.1255 7.34769 57.0677 7.33193 56.9837 7.31092C56.9102 7.28992 56.8209 7.26891 56.7159 7.2479C56.6213 7.21639 56.5215 7.19538 56.4165 7.18487C56.3114 7.16387 56.2274 7.15336 56.1644 7.15336C55.8913 7.15336 55.6707 7.20588 55.5026 7.31092C55.3346 7.40546 55.2505 7.59454 55.2505 7.87815C55.2505 8.01471 55.303 8.14076 55.4081 8.2563C55.5236 8.37185 55.6654 8.48214 55.8335 8.58718C56.0016 8.68172 56.1801 8.78151 56.3692 8.88655C56.5688 8.98109 56.7526 9.08613 56.9207 9.20168C57.0888 9.31723 57.2253 9.44328 57.3304 9.57983C57.4459 9.70588 57.5037 9.85294 57.5037 10.021Z" fill="#050608"/>
<path d="M63.8621 10.4464C63.8726 10.4674 63.8778 10.499 63.8778 10.541C63.8778 10.604 63.8306 10.6985 63.736 10.8246C63.7045 10.8666 63.6362 10.9349 63.5312 11.0294C63.4262 11.1239 63.2843 11.2185 63.1058 11.313C62.9272 11.4076 62.7066 11.4916 62.444 11.5651C62.1919 11.6387 61.8925 11.6754 61.5459 11.6754C61.3043 11.6754 61.068 11.6229 60.8369 11.5179C60.6058 11.4023 60.4009 11.2395 60.2224 11.0294C60.0438 10.8088 59.8967 10.541 59.7812 10.2258C59.6656 9.90021 59.6079 9.52206 59.6079 9.09139C59.6079 8.68172 59.6604 8.29832 59.7654 7.94118C59.8705 7.58403 60.0018 7.26891 60.1594 6.9958C60.3274 6.72269 60.5112 6.50735 60.7108 6.34979C60.9104 6.19223 61.1047 6.11345 61.2938 6.11345C61.4619 6.11345 61.6299 6.15021 61.798 6.22374C61.9766 6.28676 62.1341 6.3708 62.2707 6.47584C62.4178 6.58088 62.5333 6.70168 62.6173 6.83824C62.7014 6.96429 62.7434 7.09559 62.7434 7.23214C62.7434 7.38971 62.6699 7.55252 62.5228 7.72059C62.3862 7.88866 62.2182 8.04622 62.0186 8.19328C61.819 8.32983 61.6194 8.44538 61.4199 8.53992C61.2203 8.62395 61.0627 8.66597 60.9472 8.66597C60.8841 8.66597 60.8264 8.63971 60.7738 8.58718C60.7318 8.52416 60.7108 8.45063 60.7108 8.3666C60.7108 8.21954 60.7738 8.10399 60.8999 8.01996C61.0364 7.93592 61.1835 7.8624 61.3411 7.79937C61.4986 7.72584 61.6404 7.64181 61.7665 7.54727C61.903 7.45273 61.9713 7.32143 61.9713 7.15336C61.9713 7.13235 61.9451 7.07983 61.8925 6.9958C61.84 6.91176 61.6982 6.86975 61.4671 6.86975C61.3621 6.86975 61.2413 6.93277 61.1047 7.05882C60.9682 7.17437 60.8369 7.33718 60.7108 7.54727C60.5848 7.74685 60.4797 7.98844 60.3957 8.27206C60.3117 8.54517 60.2696 8.84454 60.2696 9.17017C60.2696 9.44328 60.3169 9.69013 60.4114 9.91071C60.5165 10.1313 60.6478 10.3204 60.8054 10.4779C60.9629 10.625 61.1467 10.7405 61.3568 10.8246C61.5669 10.9086 61.7822 10.9506 62.0028 10.9506C62.1604 10.9506 62.3285 10.9191 62.507 10.8561C62.6961 10.7826 62.8694 10.709 63.027 10.6355C63.1951 10.5515 63.3369 10.4779 63.4524 10.4149C63.5785 10.3414 63.6572 10.3046 63.6888 10.3046C63.7203 10.3046 63.7518 10.3204 63.7833 10.3519C63.8253 10.3834 63.8516 10.4149 63.8621 10.4464Z" fill="#050608"/>
<path d="M70.3321 10.1628C70.3321 10.2258 70.3111 10.2889 70.2691 10.3519C70.2271 10.4149 70.1746 10.4727 70.1115 10.5252C70.059 10.5777 69.996 10.625 69.9225 10.667C69.8594 10.6985 69.8017 10.7143 69.7491 10.7143C69.5706 10.7143 69.3395 10.6775 69.0559 10.604C68.7828 10.52 68.5622 10.3939 68.3941 10.2258C68.2155 10.0473 68.058 9.83718 67.9214 9.59559C67.7849 9.34349 67.6326 8.97584 67.4645 8.49265C67.3489 8.95483 67.2124 9.41177 67.0548 9.86345C66.9078 10.3151 66.6662 10.73 66.33 11.1082C66.309 11.1292 66.2775 11.1397 66.2355 11.1397C66.162 11.1397 66.0832 11.1029 65.9991 11.0294C65.9151 10.9559 65.8731 10.8824 65.8731 10.8088C65.8731 10.7353 65.8626 10.5672 65.8416 10.3046C65.8311 10.0315 65.8153 9.73214 65.7943 9.40651C65.7733 9.07038 65.7523 8.73424 65.7313 8.39811C65.7208 8.05147 65.7155 7.76786 65.7155 7.54727C65.7155 7.44223 65.7208 7.30567 65.7313 7.13761C65.7418 6.95903 65.7733 6.80672 65.8258 6.68067C65.8363 6.65966 65.8731 6.61765 65.9361 6.55462C66.0097 6.4916 66.0884 6.46008 66.1725 6.46008C66.246 6.46008 66.288 6.50735 66.2985 6.60189C66.309 6.69643 66.3143 6.80147 66.3143 6.91702V9.40651C66.3143 9.45903 66.3195 9.53256 66.33 9.6271C66.351 9.72164 66.3773 9.78992 66.4088 9.83193C66.5244 9.57983 66.6294 9.28571 66.7239 8.94958C66.829 8.60294 66.9288 8.27731 67.0233 7.97269C67.1178 7.65756 67.2124 7.39496 67.3069 7.18487C67.4015 6.96429 67.496 6.85399 67.5905 6.85399C67.6956 6.85399 67.7796 6.875 67.8426 6.91702C67.9057 6.95903 67.9582 7.04307 68.0002 7.16912C68.0527 7.47374 68.0947 7.74685 68.1263 7.98845C68.1578 8.21954 68.1945 8.42962 68.2365 8.6187C68.2891 8.80777 68.3573 8.98635 68.4414 9.15441C68.5359 9.31198 68.662 9.45903 68.8195 9.59559C68.9666 9.73214 69.1294 9.83193 69.308 9.89496C69.4971 9.95798 69.6599 9.9895 69.7964 9.9895C69.8594 9.9895 69.9277 9.97899 70.0013 9.95798C70.0748 9.92647 70.1273 9.91071 70.1588 9.91071C70.2008 9.91071 70.2376 9.94748 70.2691 10.021C70.3111 10.0945 70.3321 10.1418 70.3321 10.1628Z" fill="#050608"/>
<path d="M75.9502 4.97899C75.8137 5.13655 75.6194 5.29412 75.3673 5.45168C75.1152 5.59874 74.8631 5.73529 74.611 5.86134C74.3589 5.9874 74.1383 6.09769 73.9492 6.19223C73.7601 6.27626 73.6656 6.33403 73.6656 6.36555C73.6656 6.39706 73.6866 6.4916 73.7286 6.64916C73.7706 6.80672 73.8179 6.9958 73.8704 7.21639C73.9334 7.42647 73.9965 7.64706 74.0595 7.87815C74.1225 8.10924 74.175 8.31408 74.217 8.49265C74.2381 8.59769 74.2643 8.73424 74.2958 8.90231C74.3273 9.07038 74.3536 9.23845 74.3746 9.40651C74.4061 9.57458 74.4324 9.72689 74.4534 9.86345C74.4744 9.9895 74.4849 10.0578 74.4849 10.0683C74.4849 10.2258 74.4586 10.3887 74.4061 10.5567C74.3536 10.7248 74.2696 10.8088 74.154 10.8088C74.091 10.8088 74.0332 10.7826 73.9807 10.73C73.9282 10.6775 73.8809 10.6197 73.8389 10.5567C73.7969 10.4832 73.7654 10.4149 73.7444 10.3519C73.7233 10.2889 73.7128 10.2416 73.7128 10.2101C73.7128 10.1891 73.7128 10.1576 73.7128 10.1155C73.7234 10.0735 73.7286 10.0263 73.7286 9.97374C73.7286 9.77416 73.6971 9.48529 73.6341 9.10714C73.6131 8.9916 73.571 8.81303 73.508 8.57143C73.445 8.32983 73.382 8.08298 73.3189 7.83088C73.2454 7.53676 73.1614 7.21639 73.0668 6.86975C73.0248 6.72269 72.9986 6.64916 72.9881 6.64916C72.9145 6.64916 72.7885 6.69643 72.6099 6.79097C72.4418 6.875 72.2475 6.98529 72.0269 7.12185C71.8063 7.2479 71.5752 7.38971 71.3336 7.54727C71.092 7.69433 70.8662 7.83613 70.6561 7.97269C70.446 8.09874 70.2675 8.20903 70.1204 8.30357C69.9628 8.38761 69.8683 8.42962 69.8368 8.42962C69.7002 8.42962 69.5899 8.38235 69.5059 8.28782C69.4219 8.19328 69.3799 8.08823 69.3799 7.97269C69.3799 7.90966 69.4691 7.82038 69.6477 7.70483C69.8158 7.57878 70.0311 7.44223 70.2937 7.29517C70.5458 7.14811 70.8242 6.9958 71.1288 6.83824C71.4229 6.68067 71.696 6.53887 71.9481 6.41282C72.2107 6.28676 72.4261 6.18172 72.5941 6.09769C72.7727 6.01366 72.862 5.97164 72.862 5.97164C72.7675 5.48845 72.6887 5.05777 72.6257 4.67962C72.5731 4.35399 72.5206 4.05462 72.4681 3.78151C72.4261 3.5084 72.4051 3.36134 72.4051 3.34034C72.4051 3.20378 72.4313 3.10399 72.4839 3.04097C72.5469 2.96744 72.6152 2.93067 72.6887 2.93067C72.8042 2.93067 72.8778 3.00945 72.9093 3.16702C73.0248 3.73424 73.1299 4.23845 73.2244 4.67962C73.3294 5.1208 73.4292 5.47794 73.5238 5.75105C73.6183 5.73004 73.7811 5.67227 74.0122 5.57773C74.2433 5.47269 74.4849 5.36239 74.737 5.24685C74.9891 5.1313 75.2149 5.03151 75.4145 4.94748C75.6246 4.85294 75.7454 4.80567 75.7769 4.80567C75.8399 4.80567 75.8767 4.82668 75.8872 4.8687C75.9082 4.91071 75.9292 4.94748 75.9502 4.97899Z" fill="#050608"/>
<path d="M78.3662 4.85294C78.3662 4.87395 78.3295 4.91597 78.256 4.97899C78.1824 5.04202 78.0931 5.11029 77.9881 5.18382C77.8936 5.24685 77.7938 5.30462 77.6887 5.35714C77.5837 5.40966 77.4996 5.43592 77.4366 5.43592C77.3946 5.43592 77.3368 5.43592 77.2633 5.43592C77.2003 5.42542 77.132 5.40441 77.0585 5.3729C76.9955 5.34139 76.9377 5.29937 76.8852 5.24685C76.8326 5.18382 76.8064 5.10504 76.8064 5.0105C76.8064 4.86345 76.8589 4.72689 76.9639 4.60084C77.069 4.46429 77.2055 4.39601 77.3736 4.39601C77.4051 4.39601 77.4734 4.41176 77.5784 4.44328C77.694 4.46429 77.8095 4.4958 77.9251 4.53782C78.0406 4.57983 78.1404 4.6271 78.2244 4.67962C78.319 4.73214 78.3662 4.78992 78.3662 4.85294ZM78.8862 10.7458C78.8862 10.8193 78.8284 10.8824 78.7129 10.9349C78.6078 10.9874 78.5291 11.0137 78.4765 11.0137C78.3715 11.0137 78.277 10.9454 78.1929 10.8088C78.1089 10.6723 78.0354 10.5147 77.9723 10.3361C77.9093 10.1576 77.8568 9.9895 77.8148 9.83193C77.7728 9.66387 77.7412 9.54832 77.7202 9.48529C77.6887 9.38025 77.6467 9.2542 77.5942 9.10714C77.5417 8.96008 77.4891 8.81828 77.4366 8.68172C77.3946 8.54517 77.3578 8.42437 77.3263 8.31933C77.2948 8.21429 77.2791 8.15651 77.2791 8.14601C77.2791 7.99895 77.3053 7.8624 77.3578 7.73634C77.4209 7.61029 77.4944 7.54727 77.5784 7.54727C77.673 7.54727 77.7728 7.6208 77.8778 7.76786C77.9828 7.91492 78.0826 8.10399 78.1772 8.33508C78.2822 8.55567 78.3767 8.80252 78.4608 9.07563C78.5448 9.33823 78.6184 9.59034 78.6814 9.83193C78.7444 10.063 78.7917 10.2679 78.8232 10.4464C78.8652 10.6145 78.8862 10.7143 78.8862 10.7458Z" fill="#050608"/>
<path d="M87.9977 8.82353C87.9977 9.0126 87.9084 9.24895 87.7298 9.53256C87.5617 9.80567 87.3306 10.0735 87.0365 10.3361C86.7424 10.5987 86.401 10.8246 86.0124 11.0137C85.6237 11.1922 85.2193 11.2815 84.7991 11.2815C84.6101 11.2815 84.4105 11.25 84.2004 11.187C83.9903 11.124 83.7855 11.0347 83.5859 10.9191C83.3863 10.7931 83.2077 10.646 83.0502 10.4779C82.8926 10.2994 82.7771 10.0998 82.7035 9.8792C82.6405 9.94223 82.5617 10.0473 82.4672 10.1943C82.3832 10.3414 82.2886 10.4937 82.1836 10.6513C82.0785 10.7983 81.963 10.9296 81.8369 11.0452C81.7109 11.1502 81.5796 11.2027 81.443 11.2027C81.3065 11.2027 81.1909 11.1345 81.0964 10.9979C81.0124 10.8508 80.9441 10.6933 80.8916 10.5252C80.839 10.3466 80.8023 10.1786 80.7813 10.021C80.7603 9.86345 80.7498 9.77416 80.7498 9.75315C80.7498 9.6271 80.7865 9.39076 80.8601 9.04412C80.9336 8.68697 81.0439 8.31933 81.1909 7.94118C81.338 7.56303 81.5218 7.22689 81.7424 6.93277C81.9735 6.63866 82.2414 6.4916 82.546 6.4916C82.6615 6.4916 82.735 6.54412 82.7666 6.64916C82.8086 6.7437 82.8296 6.83824 82.8296 6.93277V7.40546C82.8821 7.44748 82.9346 7.47899 82.9872 7.5C83.0502 7.5105 83.1027 7.53151 83.1447 7.56303C83.1972 7.58403 83.234 7.6208 83.255 7.67332C83.2865 7.72584 83.3023 7.80987 83.3023 7.92542C83.3023 7.99895 83.297 8.06723 83.2865 8.13025C83.276 8.18277 83.2708 8.23529 83.2708 8.28782C83.2708 8.56092 83.2918 8.82878 83.3338 9.09139C83.3758 9.35399 83.4598 9.59034 83.5859 9.80042C83.7119 10 83.8853 10.1681 84.1059 10.3046C84.3264 10.4307 84.6206 10.4937 84.9882 10.4937C85.4504 10.4937 85.839 10.3992 86.1542 10.2101C86.4798 10.0105 86.7477 9.79517 86.9577 9.56408C87.1783 9.32248 87.3516 9.10714 87.4777 8.91807C87.6037 8.71849 87.7088 8.6187 87.7928 8.6187C87.9294 8.6187 87.9977 8.68697 87.9977 8.82353ZM82.4672 8.13025C82.4672 8.08823 82.4567 8.05147 82.4357 8.01996C82.4147 7.97794 82.4042 7.94118 82.4042 7.90966C82.4042 7.86765 82.4147 7.83088 82.4357 7.79937C82.4567 7.76786 82.4672 7.72584 82.4672 7.67332C82.4672 7.64181 82.4567 7.6208 82.4357 7.61029C82.4147 7.58929 82.4042 7.56828 82.4042 7.54727C82.3096 7.56828 82.2098 7.65756 82.1048 7.81513C82.0103 7.97269 81.9157 8.15651 81.8212 8.3666C81.7372 8.57668 81.6689 8.79202 81.6163 9.0126C81.5638 9.22269 81.5376 9.39601 81.5376 9.53256C81.5376 9.60609 81.5586 9.72689 81.6006 9.89496C81.6426 10.063 81.6899 10.1733 81.7424 10.2258C81.921 9.85819 82.0838 9.50105 82.2309 9.15441C82.3884 8.80777 82.4672 8.46639 82.4672 8.13025Z" fill="#050608"/>
<path d="M90.9174 11.6439C90.9174 11.7279 90.8859 11.791 90.8228 11.833C90.7598 11.875 90.6863 11.896 90.6022 11.896C90.5077 11.896 90.4079 11.8067 90.3029 11.6282C90.2083 11.4496 90.1138 11.2237 90.0193 10.9506C89.9247 10.6775 89.8354 10.3834 89.7514 10.0683C89.6674 9.74265 89.5938 9.44328 89.5308 9.17017C89.4678 8.88655 89.4153 8.65021 89.3733 8.46113C89.3417 8.27206 89.326 8.16702 89.326 8.14601C89.326 8.10399 89.305 7.9937 89.263 7.81513C89.2314 7.63655 89.1842 7.35819 89.1212 6.98004C89.0686 6.60189 89.0056 6.11345 88.9321 5.51471C88.869 4.90546 88.8008 4.15441 88.7272 3.26155C88.7272 3.16702 88.743 3.04622 88.7745 2.89916C88.806 2.7521 88.8796 2.67857 88.9951 2.67857C89.1422 2.67857 89.2525 2.77836 89.326 2.97794C89.41 3.17752 89.473 3.42437 89.5151 3.71849C89.5676 4.01261 89.6043 4.32248 89.6254 4.64811C89.6464 4.96324 89.6726 5.2416 89.7041 5.48319C89.7462 5.81933 89.7829 6.12395 89.8144 6.39706C89.8564 6.67017 89.8932 6.94328 89.9247 7.21639C89.9667 7.47899 90.014 7.75735 90.0665 8.05147C90.1296 8.34559 90.2031 8.67122 90.2871 9.02836L90.9174 11.6439Z" fill="#050608"/>
<path d="M96.3208 10.021C96.3208 10.1996 96.2578 10.3571 96.1317 10.4937C96.0162 10.6197 95.8639 10.73 95.6748 10.8246C95.4962 10.9086 95.2966 10.9769 95.076 11.0294C94.8555 11.0819 94.6454 11.124 94.4458 11.1555C94.2462 11.1765 94.0676 11.1922 93.9101 11.2027C93.763 11.2027 93.6685 11.2027 93.6265 11.2027C93.3954 11.2027 93.2168 11.166 93.0908 11.0924C92.9647 11.0189 92.9017 10.8876 92.9017 10.6985C92.9017 10.6355 92.9069 10.583 92.9174 10.541C92.9279 10.4884 92.97 10.4622 93.0435 10.4622C93.075 10.4622 93.1275 10.4727 93.2011 10.4937C93.2746 10.5042 93.3324 10.5095 93.3744 10.5095C93.4164 10.5095 93.5477 10.5042 93.7683 10.4937C93.9994 10.4727 94.241 10.4412 94.4931 10.3992C94.7557 10.3571 94.9868 10.2994 95.1863 10.2258C95.3964 10.1418 95.5015 10.0368 95.5015 9.91071C95.5015 9.88971 95.3912 9.82668 95.1706 9.72164C94.9605 9.60609 94.6401 9.41702 94.2095 9.15441C93.8733 8.94433 93.637 8.73424 93.5004 8.52416C93.3639 8.30357 93.2956 8.00945 93.2956 7.64181C93.2956 7.41071 93.3429 7.22164 93.4374 7.07458C93.5424 6.92752 93.679 6.81198 93.8471 6.72794C94.0256 6.64391 94.2252 6.58613 94.4458 6.55462C94.6769 6.51261 94.9185 6.4916 95.1706 6.4916C95.1916 6.4916 95.2546 6.5021 95.3597 6.52311C95.4752 6.54412 95.596 6.58088 95.7221 6.6334C95.8481 6.67542 95.9584 6.73319 96.0529 6.80672C96.158 6.86975 96.2105 6.94328 96.2105 7.02731C96.2105 7.04832 96.1895 7.07983 96.1475 7.12185C96.116 7.16387 96.0582 7.24265 95.9742 7.35819C95.9426 7.34769 95.8849 7.33193 95.8008 7.31092C95.7273 7.28992 95.638 7.26891 95.533 7.2479C95.4385 7.21639 95.3387 7.19538 95.2336 7.18487C95.1286 7.16387 95.0445 7.15336 94.9815 7.15336C94.7084 7.15336 94.4878 7.20588 94.3197 7.31092C94.1517 7.40546 94.0676 7.59454 94.0676 7.87815C94.0676 8.01471 94.1202 8.14076 94.2252 8.2563C94.3408 8.37185 94.4826 8.48214 94.6506 8.58718C94.8187 8.68172 94.9973 8.78151 95.1863 8.88655C95.3859 8.98109 95.5698 9.08613 95.7378 9.20168C95.9059 9.31723 96.0424 9.44328 96.1475 9.57983C96.263 9.70588 96.3208 9.85294 96.3208 10.021Z" fill="#050608"/>
<path d="M110.606 0.803571C110.616 0.82458 110.621 0.861344 110.621 0.913865C110.621 0.966386 110.621 1.02416 110.621 1.08718C110.621 1.16071 110.595 1.19748 110.543 1.19748C110.522 1.19748 110.495 1.19223 110.464 1.18172C110.432 1.17122 110.406 1.16071 110.385 1.15021C110.196 1.06618 109.965 0.961134 109.692 0.835084C109.429 0.698529 109.13 0.630252 108.794 0.630252C108.415 0.630252 108.111 0.772058 107.88 1.05567C107.649 1.33929 107.47 1.67017 107.344 2.04832C107.229 2.41597 107.15 2.77836 107.108 3.1355C107.076 3.49265 107.06 3.75 107.06 3.90756C107.06 4.02311 107.076 4.20693 107.108 4.45903C107.15 4.70063 107.202 4.95273 107.265 5.21534C107.328 5.47794 107.402 5.71954 107.486 5.94013C107.57 6.15021 107.654 6.28151 107.738 6.33403C107.801 6.33403 107.911 6.32878 108.069 6.31828C108.237 6.30777 108.373 6.30252 108.479 6.30252C108.657 6.30252 108.825 6.31828 108.983 6.34979C109.14 6.3813 109.303 6.39706 109.471 6.39706C109.513 6.39706 109.576 6.39706 109.66 6.39706C109.744 6.39706 109.828 6.40231 109.912 6.41282C110.007 6.42332 110.086 6.44433 110.149 6.47584C110.212 6.49685 110.243 6.52836 110.243 6.57038C110.243 6.6229 110.206 6.67017 110.133 6.71218C110.059 6.7542 109.975 6.79097 109.881 6.82248C109.786 6.84349 109.692 6.85924 109.597 6.86975C109.503 6.88025 109.429 6.8855 109.377 6.8855C109.324 6.8855 109.256 6.8855 109.172 6.8855C109.088 6.875 108.993 6.8645 108.888 6.85399C108.794 6.84349 108.699 6.83824 108.605 6.83824C108.521 6.82773 108.447 6.82248 108.384 6.82248C108.216 6.82248 108.111 6.84349 108.069 6.8855C108.037 6.91702 108.022 6.98529 108.022 7.09034C108.022 7.2479 108.09 7.46324 108.226 7.73634C108.373 7.99895 108.531 8.28256 108.699 8.58718C108.867 8.89181 109.019 9.20693 109.156 9.53256C109.303 9.85819 109.377 10.1576 109.377 10.4307C109.377 10.4832 109.361 10.583 109.329 10.73C109.308 10.8666 109.272 11.0084 109.219 11.1555C109.177 11.3025 109.114 11.4338 109.03 11.5494C108.946 11.6649 108.851 11.7227 108.746 11.7227C108.662 11.7227 108.584 11.7017 108.51 11.6597C108.447 11.6071 108.415 11.5231 108.415 11.4076C108.415 11.2395 108.458 11.0819 108.542 10.9349C108.636 10.7878 108.683 10.6303 108.683 10.4622C108.683 10.3782 108.641 10.2363 108.557 10.0368C108.484 9.83718 108.389 9.6166 108.274 9.375C108.158 9.1229 108.032 8.86029 107.896 8.58718C107.759 8.31408 107.628 8.06723 107.502 7.84664C107.386 7.61555 107.286 7.42647 107.202 7.27941C107.118 7.13235 107.071 7.05357 107.06 7.04307C106.85 7.1166 106.635 7.19013 106.414 7.26366C106.194 7.33718 105.994 7.44748 105.816 7.59454C105.742 7.66807 105.674 7.70483 105.611 7.70483C105.506 7.70483 105.406 7.66282 105.311 7.57878C105.227 7.49475 105.185 7.40021 105.185 7.29517C105.185 7.17962 105.217 7.09034 105.28 7.02731C105.354 6.95378 105.422 6.90126 105.485 6.86975C105.579 6.81723 105.726 6.75945 105.926 6.69643C106.126 6.6334 106.325 6.58088 106.525 6.53887C106.598 6.51786 106.667 6.5021 106.73 6.4916C106.793 6.47059 106.824 6.43382 106.824 6.3813C106.793 6.27626 106.745 6.13971 106.682 5.97164C106.63 5.79307 106.572 5.58298 106.509 5.34139C106.456 5.09979 106.409 4.83193 106.367 4.53782C106.325 4.23319 106.304 3.90756 106.304 3.56092C106.304 3.18277 106.346 2.78361 106.43 2.36345C106.525 1.94328 106.667 1.55987 106.856 1.21323C107.055 0.856092 107.302 0.567226 107.596 0.346638C107.89 0.115546 108.242 0 108.652 0C108.841 0 109.051 0.0210081 109.282 0.0630243C109.513 0.0945372 109.723 0.147059 109.912 0.220588C110.112 0.283613 110.275 0.367647 110.401 0.472689C110.537 0.567226 110.606 0.677521 110.606 0.803571Z" fill="#050608"/>
<path d="M115.059 8.69748C115.059 8.92857 115.027 9.14916 114.964 9.35924C114.901 9.56933 114.817 9.75315 114.712 9.91071C114.607 10.0683 114.481 10.1943 114.334 10.2889C114.197 10.3729 114.045 10.4149 113.877 10.4149C113.583 10.4149 113.352 10.3309 113.184 10.1628C113.016 9.99475 112.884 9.80042 112.79 9.57983C112.706 9.35924 112.648 9.13866 112.617 8.91807C112.596 8.68698 112.585 8.51366 112.585 8.39811C112.585 8.20903 112.611 7.99895 112.664 7.76786C112.727 7.52626 112.806 7.30567 112.9 7.10609C113.005 6.90651 113.121 6.73845 113.247 6.60189C113.373 6.46534 113.504 6.39706 113.641 6.39706C113.672 6.39706 113.719 6.40756 113.782 6.42857C113.856 6.44958 113.93 6.48109 114.003 6.52311C114.077 6.56513 114.14 6.61765 114.192 6.68067C114.255 6.7437 114.297 6.81723 114.318 6.90126C114.434 6.91176 114.549 6.95378 114.665 7.02731C114.78 7.10084 114.843 7.15861 114.854 7.20063C114.938 7.47374 114.99 7.74685 115.011 8.01996C115.043 8.29307 115.059 8.51891 115.059 8.69748ZM114.35 8.41387C114.35 8.2563 114.334 8.09349 114.302 7.92542C114.271 7.74685 114.208 7.56828 114.113 7.38971C114.092 7.40021 114.066 7.40546 114.035 7.40546C113.993 7.40546 113.956 7.40021 113.924 7.38971C113.903 7.3792 113.882 7.37395 113.861 7.37395C113.735 7.37395 113.635 7.41071 113.562 7.48424C113.488 7.54727 113.431 7.63656 113.389 7.7521C113.357 7.85714 113.336 7.97269 113.326 8.09874C113.315 8.22479 113.31 8.34559 113.31 8.46113C113.31 8.57668 113.315 8.70798 113.326 8.85504C113.336 8.9916 113.357 9.1229 113.389 9.24895C113.431 9.375 113.483 9.48529 113.546 9.57983C113.609 9.66387 113.693 9.70588 113.798 9.70588C113.903 9.70588 113.993 9.65336 114.066 9.54832C114.14 9.43277 114.197 9.30147 114.239 9.15441C114.281 9.00735 114.308 8.86555 114.318 8.72899C114.339 8.58193 114.35 8.47689 114.35 8.41387Z" fill="#050608"/>
<path d="M121.003 7.29517C121.003 7.3687 120.972 7.43172 120.909 7.48424C120.846 7.52626 120.772 7.56303 120.688 7.59454C120.604 7.62605 120.52 7.65231 120.436 7.67332C120.352 7.68382 120.284 7.68908 120.231 7.68908C120.074 7.68908 119.969 7.67857 119.916 7.65756C119.863 7.63655 119.821 7.62605 119.79 7.62605C119.527 7.62605 119.317 7.64706 119.16 7.68908C119.002 7.73109 118.876 7.79937 118.782 7.89391C118.698 7.98845 118.64 8.10924 118.608 8.2563C118.587 8.39286 118.577 8.56092 118.577 8.7605C118.577 9.09664 118.587 9.3645 118.608 9.56408C118.64 9.76365 118.666 9.92647 118.687 10.0525C118.719 10.1786 118.745 10.2784 118.766 10.3519C118.797 10.4149 118.813 10.4779 118.813 10.541C118.813 10.625 118.766 10.7143 118.671 10.8088C118.587 10.9034 118.508 10.9506 118.435 10.9506C118.309 10.9506 118.193 10.8403 118.088 10.6197C117.994 10.3887 117.91 10.1208 117.836 9.81618C117.773 9.50105 117.721 9.19118 117.679 8.88655C117.637 8.58193 117.616 8.35084 117.616 8.19328C117.616 8.01471 117.631 7.84664 117.663 7.68908C117.694 7.52101 117.736 7.3792 117.789 7.26366C117.841 7.13761 117.899 7.03782 117.962 6.96429C118.025 6.89076 118.088 6.85399 118.151 6.85399C118.204 6.85399 118.246 6.875 118.277 6.91702C118.309 6.94853 118.335 6.99055 118.356 7.04307C118.377 7.08508 118.398 7.1271 118.419 7.16912C118.451 7.20063 118.487 7.21639 118.529 7.21639C118.624 7.21639 118.776 7.16912 118.986 7.07458C119.196 6.98004 119.454 6.93277 119.758 6.93277C120.042 6.93277 120.252 6.94328 120.389 6.96429C120.536 6.97479 120.678 7.0063 120.814 7.05882C120.846 7.06933 120.882 7.09559 120.924 7.13761C120.977 7.16912 121.003 7.22164 121.003 7.29517Z" fill="#050608"/>
<path d="M133.348 4.72689C133.211 5.45168 133.085 6.15021 132.97 6.82248C132.917 7.10609 132.865 7.40546 132.812 7.72059C132.76 8.02521 132.707 8.32983 132.654 8.63445C132.612 8.92857 132.57 9.21218 132.528 9.48529C132.497 9.7479 132.471 9.9895 132.45 10.2101C132.408 10.5462 132.376 10.9296 132.355 11.3603C132.334 11.791 132.313 12.2006 132.292 12.5893C132.271 13.041 132.261 13.4979 132.261 13.9601C132.261 14.0546 132.25 14.1597 132.229 14.2752C132.208 14.3908 132.198 14.5063 132.198 14.6218C132.198 14.7269 132.171 14.8162 132.119 14.8897C132.077 14.9632 132.008 15 131.914 15C131.83 15 131.762 14.9317 131.709 14.7952C131.667 14.6691 131.63 14.5168 131.599 14.3382C131.567 14.1702 131.546 13.9968 131.536 13.8183C131.525 13.6502 131.52 13.5294 131.52 13.4559C131.52 13.3718 131.52 13.2668 131.52 13.1408C131.52 13.0252 131.525 12.8466 131.536 12.605C131.557 12.3739 131.583 12.0693 131.615 11.6912C131.646 11.3025 131.693 10.7983 131.756 10.1786C131.756 10.1681 131.683 10.1155 131.536 10.021C131.399 9.92647 131.226 9.81092 131.016 9.67437C130.816 9.52731 130.606 9.36975 130.386 9.20168C130.175 9.03361 129.997 8.8708 129.85 8.71324C129.829 8.69223 129.797 8.64496 129.755 8.57143C129.713 8.4979 129.692 8.40861 129.692 8.30357C129.692 8.25105 129.719 8.19853 129.771 8.14601C129.824 8.08298 129.881 8.05147 129.944 8.05147C129.986 8.05147 130.028 8.07248 130.07 8.1145C130.312 8.32458 130.59 8.56092 130.906 8.82353C131.221 9.07563 131.531 9.30672 131.835 9.51681C131.856 9.32773 131.898 9.03887 131.961 8.65021C132.035 8.26155 132.108 7.84664 132.182 7.40546C132.255 6.95378 132.324 6.51786 132.387 6.09769C132.46 5.67752 132.513 5.34139 132.544 5.08929C132.544 5.04727 132.555 4.97899 132.576 4.88445C132.597 4.78992 132.628 4.69538 132.67 4.60084C132.712 4.5063 132.76 4.42752 132.812 4.3645C132.865 4.29097 132.922 4.2542 132.985 4.2542C133.017 4.2542 133.085 4.28571 133.19 4.34874C133.295 4.40126 133.348 4.52731 133.348 4.72689Z" fill="#050608"/>
<path d="M137.952 8.69748C137.952 8.92857 137.921 9.14916 137.858 9.35924C137.795 9.56933 137.711 9.75315 137.606 9.91071C137.5 10.0683 137.374 10.1943 137.227 10.2889C137.091 10.3729 136.939 10.4149 136.77 10.4149C136.476 10.4149 136.245 10.3309 136.077 10.1628C135.909 9.99475 135.778 9.80042 135.683 9.57983C135.599 9.35924 135.541 9.13866 135.51 8.91807C135.489 8.68698 135.478 8.51366 135.478 8.39811C135.478 8.20903 135.505 7.99895 135.557 7.76786C135.62 7.52626 135.699 7.30567 135.794 7.10609C135.899 6.90651 136.014 6.73845 136.14 6.60189C136.266 6.46534 136.398 6.39706 136.534 6.39706C136.566 6.39706 136.613 6.40756 136.676 6.42857C136.749 6.44958 136.823 6.48109 136.896 6.52311C136.97 6.56513 137.033 6.61765 137.086 6.68067C137.149 6.7437 137.191 6.81723 137.212 6.90126C137.327 6.91176 137.443 6.95378 137.558 7.02731C137.674 7.10084 137.737 7.15861 137.747 7.20063C137.831 7.47374 137.884 7.74685 137.905 8.01996C137.936 8.29307 137.952 8.51891 137.952 8.69748ZM137.243 8.41387C137.243 8.2563 137.227 8.09349 137.196 7.92542C137.164 7.74685 137.101 7.56828 137.007 7.38971C136.986 7.40021 136.96 7.40546 136.928 7.40546C136.886 7.40546 136.849 7.40021 136.818 7.38971C136.797 7.3792 136.776 7.37395 136.755 7.37395C136.629 7.37395 136.529 7.41071 136.455 7.48424C136.382 7.54727 136.324 7.63656 136.282 7.7521C136.25 7.85714 136.229 7.97269 136.219 8.09874C136.208 8.22479 136.203 8.34559 136.203 8.46113C136.203 8.57668 136.208 8.70798 136.219 8.85504C136.229 8.9916 136.25 9.1229 136.282 9.24895C136.324 9.375 136.377 9.48529 136.44 9.57983C136.503 9.66387 136.587 9.70588 136.692 9.70588C136.797 9.70588 136.886 9.65336 136.96 9.54832C137.033 9.43277 137.091 9.30147 137.133 9.15441C137.175 9.00735 137.201 8.86555 137.212 8.72899C137.233 8.58193 137.243 8.47689 137.243 8.41387Z" fill="#050608"/>
<path d="M145.362 9.48529C145.362 9.57983 145.299 9.67962 145.173 9.78466C145.047 9.88971 144.9 9.9895 144.732 10.084C144.564 10.1681 144.39 10.2416 144.212 10.3046C144.044 10.3676 143.918 10.3992 143.834 10.3992C143.739 10.3992 143.634 10.3729 143.518 10.3204C143.413 10.2679 143.308 10.2048 143.203 10.1313C143.109 10.0578 143.025 9.9895 142.951 9.92647C142.878 9.86345 142.83 9.82143 142.809 9.80042C142.778 9.83193 142.731 9.89496 142.668 9.9895C142.605 10.084 142.526 10.1891 142.431 10.3046C142.347 10.4097 142.253 10.5042 142.148 10.5882C142.053 10.6723 141.953 10.7143 141.848 10.7143C141.575 10.7143 141.339 10.5672 141.139 10.2731C140.94 9.97899 140.772 9.64286 140.635 9.26471C140.509 8.88655 140.409 8.52416 140.336 8.17752C140.273 7.82038 140.241 7.57878 140.241 7.45273C140.241 7.3792 140.278 7.32143 140.351 7.27941C140.435 7.22689 140.498 7.20063 140.54 7.20063C140.688 7.20063 140.787 7.25315 140.84 7.35819C140.892 7.45273 140.919 7.55777 140.919 7.67332C140.919 7.76786 140.945 7.93592 140.997 8.17752C141.06 8.41912 141.134 8.66597 141.218 8.91807C141.302 9.17017 141.391 9.39601 141.486 9.59559C141.58 9.78466 141.664 9.8792 141.738 9.8792C141.875 9.8792 141.99 9.79517 142.085 9.6271C142.19 9.44853 142.274 9.24895 142.337 9.02836C142.4 8.79727 142.447 8.58193 142.479 8.38235C142.51 8.17227 142.526 8.03571 142.526 7.97269C142.526 7.96218 142.526 7.93067 142.526 7.87815C142.536 7.81513 142.547 7.7521 142.557 7.68908C142.568 7.62605 142.573 7.56828 142.573 7.51576C142.584 7.46324 142.589 7.42647 142.589 7.40546C142.589 7.33193 142.573 7.28466 142.542 7.26366C142.51 7.23214 142.494 7.17437 142.494 7.09034C142.494 7.02731 142.526 6.96954 142.589 6.91702C142.652 6.85399 142.788 6.82248 142.998 6.82248C143.083 6.82248 143.146 6.84874 143.188 6.90126C143.24 6.94328 143.277 6.9958 143.298 7.05882C143.319 7.12185 143.329 7.18487 143.329 7.2479C143.34 7.30042 143.345 7.33719 143.345 7.35819C143.345 7.3687 143.34 7.44223 143.329 7.57878C143.319 7.71534 143.308 7.86765 143.298 8.03571C143.298 8.19328 143.293 8.34559 143.282 8.49265C143.272 8.63971 143.266 8.72899 143.266 8.7605C143.266 8.79202 143.282 8.85504 143.314 8.94958C143.345 9.04412 143.382 9.14391 143.424 9.24895C143.476 9.34349 143.534 9.43277 143.597 9.51681C143.66 9.59034 143.729 9.6271 143.802 9.6271C143.928 9.6271 144.044 9.61134 144.149 9.57983C144.264 9.53782 144.369 9.4958 144.464 9.45378C144.569 9.40126 144.663 9.35924 144.747 9.32773C144.831 9.28571 144.91 9.26471 144.984 9.26471C145.078 9.26471 145.162 9.28571 145.236 9.32773C145.32 9.36975 145.362 9.42227 145.362 9.48529Z" fill="#050608"/>
<path d="M150.343 7.29517C150.343 7.3687 150.312 7.43172 150.249 7.48424C150.186 7.52626 150.112 7.56303 150.028 7.59454C149.944 7.62605 149.86 7.65231 149.776 7.67332C149.692 7.68382 149.624 7.68908 149.571 7.68908C149.414 7.68908 149.308 7.67857 149.256 7.65756C149.203 7.63655 149.161 7.62605 149.13 7.62605C148.867 7.62605 148.657 7.64706 148.5 7.68908C148.342 7.73109 148.216 7.79937 148.122 7.89391C148.037 7.98845 147.98 8.10924 147.948 8.2563C147.927 8.39286 147.917 8.56092 147.917 8.7605C147.917 9.09664 147.927 9.3645 147.948 9.56408C147.98 9.76365 148.006 9.92647 148.027 10.0525C148.058 10.1786 148.085 10.2784 148.106 10.3519C148.137 10.4149 148.153 10.4779 148.153 10.541C148.153 10.625 148.106 10.7143 148.011 10.8088C147.927 10.9034 147.848 10.9506 147.775 10.9506C147.649 10.9506 147.533 10.8403 147.428 10.6197C147.334 10.3887 147.25 10.1208 147.176 9.81618C147.113 9.50105 147.061 9.19118 147.019 8.88655C146.977 8.58193 146.956 8.35084 146.956 8.19328C146.956 8.01471 146.971 7.84664 147.003 7.68908C147.034 7.52101 147.076 7.3792 147.129 7.26366C147.181 7.13761 147.239 7.03782 147.302 6.96429C147.365 6.89076 147.428 6.85399 147.491 6.85399C147.544 6.85399 147.586 6.875 147.617 6.91702C147.649 6.94853 147.675 6.99055 147.696 7.04307C147.717 7.08508 147.738 7.1271 147.759 7.16912C147.791 7.20063 147.827 7.21639 147.869 7.21639C147.964 7.21639 148.116 7.16912 148.326 7.07458C148.536 6.98004 148.794 6.93277 149.098 6.93277C149.382 6.93277 149.592 6.94328 149.729 6.96429C149.876 6.97479 150.018 7.0063 150.154 7.05882C150.186 7.06933 150.222 7.09559 150.264 7.13761C150.317 7.16912 150.343 7.22164 150.343 7.29517Z" fill="#050608"/>
<path d="M164.437 9.18592C164.489 9.23845 164.515 9.26996 164.515 9.28046C164.515 9.30147 164.484 9.3645 164.421 9.46954C164.368 9.57458 164.295 9.68487 164.2 9.80042C164.106 9.91597 164.001 10.021 163.885 10.1155C163.78 10.1996 163.675 10.2416 163.57 10.2416C163.349 10.2416 163.171 10.1996 163.034 10.1155C162.898 10.021 162.782 9.90546 162.688 9.76891C162.604 9.63235 162.535 9.48529 162.483 9.32773C162.441 9.15966 162.404 9.0021 162.373 8.85504C162.352 8.78151 162.331 8.74475 162.31 8.74475C162.278 8.74475 162.215 8.86029 162.12 9.09139C162.026 9.31197 161.921 9.55882 161.805 9.83193C161.7 10.0945 161.595 10.3414 161.49 10.5725C161.396 10.7931 161.333 10.9034 161.301 10.9034C161.112 10.9034 160.949 10.8246 160.813 10.667C160.687 10.4989 160.582 10.3099 160.498 10.0998C160.424 9.8792 160.366 9.65861 160.324 9.43803C160.282 9.20693 160.256 9.02836 160.245 8.90231C160.214 8.6187 160.146 8.14601 160.041 7.48424C159.936 6.82248 159.846 6.01891 159.773 5.07353C159.752 4.87395 159.726 4.69538 159.694 4.53782C159.673 4.36975 159.647 4.18592 159.615 3.98634C159.584 3.78676 159.557 3.56092 159.536 3.30882C159.515 3.05672 159.505 2.74685 159.505 2.3792C159.505 2.35819 159.51 2.28992 159.521 2.17437C159.531 2.05882 159.547 1.93277 159.568 1.79622C159.589 1.65966 159.62 1.53886 159.662 1.43382C159.715 1.32878 159.773 1.27626 159.836 1.27626C159.909 1.27626 159.978 1.32353 160.041 1.41807C160.104 1.5021 160.156 1.60189 160.198 1.71744C160.251 1.83298 160.287 1.94328 160.309 2.04832C160.33 2.15336 160.34 2.22689 160.34 2.26891C160.34 2.42647 160.33 2.57353 160.309 2.71008C160.287 2.84664 160.277 2.97269 160.277 3.08824C160.277 3.2458 160.287 3.44538 160.309 3.68697C160.34 3.92857 160.377 4.17542 160.419 4.42752C160.461 4.67962 160.498 4.92647 160.529 5.16807C160.561 5.39916 160.587 5.58824 160.608 5.73529C160.608 5.7458 160.618 5.81933 160.639 5.95588C160.66 6.09244 160.681 6.26576 160.702 6.47584C160.734 6.67542 160.76 6.89601 160.781 7.13761C160.813 7.3687 160.844 7.59979 160.876 7.83088C160.907 8.05147 160.934 8.25105 160.955 8.42962C160.986 8.59769 161.007 8.71849 161.018 8.79202C161.018 8.82353 161.023 8.8708 161.033 8.93382C161.054 8.98635 161.07 9.04937 161.081 9.1229C161.102 9.19643 161.123 9.26471 161.144 9.32773C161.165 9.39076 161.191 9.43803 161.222 9.46954C161.285 9.34349 161.364 9.14916 161.459 8.88655C161.564 8.62395 161.669 8.35609 161.774 8.08298C161.889 7.80987 161.994 7.57353 162.089 7.37395C162.194 7.16387 162.283 7.05882 162.357 7.05882C162.441 7.05882 162.509 7.07458 162.562 7.10609C162.614 7.13761 162.682 7.16387 162.766 7.18487C162.872 7.22689 162.924 7.28466 162.924 7.35819C162.924 7.42122 162.935 7.5 162.956 7.59454C162.977 7.72059 163.008 7.88866 163.05 8.09874C163.103 8.29832 163.16 8.4979 163.223 8.69748C163.286 8.88655 163.36 9.04937 163.444 9.18592C163.528 9.32248 163.612 9.39076 163.696 9.39076C163.738 9.39076 163.796 9.33824 163.869 9.23319C163.943 9.11765 164.043 9.05462 164.169 9.04412C164.19 9.04412 164.227 9.05987 164.279 9.09139C164.332 9.11239 164.384 9.14391 164.437 9.18592Z" fill="#050608"/>
<path d="M168.892 8.69748C168.892 8.92857 168.861 9.14916 168.798 9.35924C168.735 9.56933 168.651 9.75315 168.546 9.91071C168.441 10.0683 168.315 10.1943 168.168 10.2889C168.031 10.3729 167.879 10.4149 167.711 10.4149C167.417 10.4149 167.185 10.3309 167.017 10.1628C166.849 9.99475 166.718 9.80042 166.623 9.57983C166.539 9.35924 166.482 9.13866 166.45 8.91807C166.429 8.68698 166.419 8.51366 166.419 8.39811C166.419 8.20903 166.445 7.99895 166.497 7.76786C166.56 7.52626 166.639 7.30567 166.734 7.10609C166.839 6.90651 166.954 6.73845 167.08 6.60189C167.206 6.46534 167.338 6.39706 167.474 6.39706C167.506 6.39706 167.553 6.40756 167.616 6.42857C167.69 6.44958 167.763 6.48109 167.837 6.52311C167.91 6.56513 167.973 6.61765 168.026 6.68067C168.089 6.7437 168.131 6.81723 168.152 6.90126C168.267 6.91176 168.383 6.95378 168.498 7.02731C168.614 7.10084 168.677 7.15861 168.688 7.20063C168.772 7.47374 168.824 7.74685 168.845 8.01996C168.877 8.29307 168.892 8.51891 168.892 8.69748ZM168.183 8.41387C168.183 8.2563 168.168 8.09349 168.136 7.92542C168.105 7.74685 168.042 7.56828 167.947 7.38971C167.926 7.40021 167.9 7.40546 167.868 7.40546C167.826 7.40546 167.789 7.40021 167.758 7.38971C167.737 7.3792 167.716 7.37395 167.695 7.37395C167.569 7.37395 167.469 7.41071 167.396 7.48424C167.322 7.54727 167.264 7.63656 167.222 7.7521C167.191 7.85714 167.17 7.97269 167.159 8.09874C167.149 8.22479 167.143 8.34559 167.143 8.46113C167.143 8.57668 167.149 8.70798 167.159 8.85504C167.17 8.9916 167.191 9.1229 167.222 9.24895C167.264 9.375 167.317 9.48529 167.38 9.57983C167.443 9.66387 167.527 9.70588 167.632 9.70588C167.737 9.70588 167.826 9.65336 167.9 9.54832C167.973 9.43277 168.031 9.30147 168.073 9.15441C168.115 9.00735 168.141 8.86555 168.152 8.72899C168.173 8.58193 168.183 8.47689 168.183 8.41387Z" fill="#050608"/>
<path d="M176.302 9.48529C176.302 9.57983 176.239 9.67962 176.113 9.78466C175.987 9.88971 175.84 9.9895 175.672 10.084C175.504 10.1681 175.331 10.2416 175.152 10.3046C174.984 10.3676 174.858 10.3992 174.774 10.3992C174.679 10.3992 174.574 10.3729 174.459 10.3204C174.354 10.2679 174.249 10.2048 174.144 10.1313C174.049 10.0578 173.965 9.9895 173.891 9.92647C173.818 9.86345 173.771 9.82143 173.75 9.80042C173.718 9.83193 173.671 9.89496 173.608 9.9895C173.545 10.084 173.466 10.1891 173.371 10.3046C173.287 10.4097 173.193 10.5042 173.088 10.5882C172.993 10.6723 172.894 10.7143 172.788 10.7143C172.515 10.7143 172.279 10.5672 172.079 10.2731C171.88 9.97899 171.712 9.64286 171.575 9.26471C171.449 8.88655 171.349 8.52416 171.276 8.17752C171.213 7.82038 171.181 7.57878 171.181 7.45273C171.181 7.3792 171.218 7.32143 171.292 7.27941C171.376 7.22689 171.439 7.20063 171.481 7.20063C171.628 7.20063 171.728 7.25315 171.78 7.35819C171.833 7.45273 171.859 7.55777 171.859 7.67332C171.859 7.76786 171.885 7.93592 171.938 8.17752C172.001 8.41912 172.074 8.66597 172.158 8.91807C172.242 9.17017 172.332 9.39601 172.426 9.59559C172.521 9.78466 172.605 9.8792 172.678 9.8792C172.815 9.8792 172.93 9.79517 173.025 9.6271C173.13 9.44853 173.214 9.24895 173.277 9.02836C173.34 8.79727 173.387 8.58193 173.419 8.38235C173.45 8.17227 173.466 8.03571 173.466 7.97269C173.466 7.96218 173.466 7.93067 173.466 7.87815C173.477 7.81513 173.487 7.7521 173.498 7.68908C173.508 7.62605 173.513 7.56828 173.513 7.51576C173.524 7.46324 173.529 7.42647 173.529 7.40546C173.529 7.33193 173.513 7.28466 173.482 7.26366C173.45 7.23214 173.434 7.17437 173.434 7.09034C173.434 7.02731 173.466 6.96954 173.529 6.91702C173.592 6.85399 173.729 6.82248 173.939 6.82248C174.023 6.82248 174.086 6.84874 174.128 6.90126C174.18 6.94328 174.217 6.9958 174.238 7.05882C174.259 7.12185 174.27 7.18487 174.27 7.2479C174.28 7.30042 174.285 7.33719 174.285 7.35819C174.285 7.3687 174.28 7.44223 174.27 7.57878C174.259 7.71534 174.249 7.86765 174.238 8.03571C174.238 8.19328 174.233 8.34559 174.222 8.49265C174.212 8.63971 174.207 8.72899 174.207 8.7605C174.207 8.79202 174.222 8.85504 174.254 8.94958C174.285 9.04412 174.322 9.14391 174.364 9.24895C174.417 9.34349 174.474 9.43277 174.537 9.51681C174.6 9.59034 174.669 9.6271 174.742 9.6271C174.868 9.6271 174.984 9.61134 175.089 9.57983C175.204 9.53782 175.309 9.4958 175.404 9.45378C175.509 9.40126 175.604 9.35924 175.688 9.32773C175.772 9.28571 175.85 9.26471 175.924 9.26471C176.019 9.26471 176.103 9.28571 176.176 9.32773C176.26 9.36975 176.302 9.42227 176.302 9.48529Z" fill="#050608"/>
<path d="M181.11 10.021C181.11 10.1996 181.047 10.3571 180.921 10.4937C180.805 10.6197 180.653 10.73 180.464 10.8246C180.285 10.9086 180.086 10.9769 179.865 11.0294C179.645 11.0819 179.435 11.124 179.235 11.1555C179.035 11.1765 178.857 11.1922 178.699 11.2027C178.552 11.2027 178.458 11.2027 178.416 11.2027C178.185 11.2027 178.006 11.166 177.88 11.0924C177.754 11.0189 177.691 10.8876 177.691 10.6985C177.691 10.6355 177.696 10.583 177.707 10.541C177.717 10.4884 177.759 10.4622 177.833 10.4622C177.864 10.4622 177.917 10.4727 177.99 10.4937C178.064 10.5042 178.122 10.5095 178.164 10.5095C178.206 10.5095 178.337 10.5042 178.558 10.4937C178.789 10.4727 179.03 10.4412 179.282 10.3992C179.545 10.3571 179.776 10.2994 179.976 10.2258C180.186 10.1418 180.291 10.0368 180.291 9.91071C180.291 9.88971 180.18 9.82668 179.96 9.72164C179.75 9.60609 179.429 9.41702 178.999 9.15441C178.663 8.94433 178.426 8.73424 178.29 8.52416C178.153 8.30357 178.085 8.00945 178.085 7.64181C178.085 7.41071 178.132 7.22164 178.227 7.07458C178.332 6.92752 178.468 6.81198 178.636 6.72794C178.815 6.64391 179.014 6.58613 179.235 6.55462C179.466 6.51261 179.708 6.4916 179.96 6.4916C179.981 6.4916 180.044 6.5021 180.149 6.52311C180.264 6.54412 180.385 6.58088 180.511 6.6334C180.637 6.67542 180.748 6.73319 180.842 6.80672C180.947 6.86975 181 6.94328 181 7.02731C181 7.04832 180.979 7.07983 180.937 7.12185C180.905 7.16387 180.847 7.24265 180.763 7.35819C180.732 7.34769 180.674 7.33193 180.59 7.31092C180.517 7.28992 180.427 7.26891 180.322 7.2479C180.228 7.21639 180.128 7.19538 180.023 7.18487C179.918 7.16387 179.834 7.15336 179.771 7.15336C179.498 7.15336 179.277 7.20588 179.109 7.31092C178.941 7.40546 178.857 7.59454 178.857 7.87815C178.857 8.01471 178.909 8.14076 179.014 8.2563C179.13 8.37185 179.272 8.48214 179.44 8.58718C179.608 8.68172 179.786 8.78151 179.976 8.88655C180.175 8.98109 180.359 9.08613 180.527 9.20168C180.695 9.31723 180.832 9.44328 180.937 9.57983C181.052 9.70588 181.11 9.85294 181.11 10.021Z" fill="#050608"/>
<path d="M187.468 10.4464C187.479 10.4674 187.484 10.499 187.484 10.541C187.484 10.604 187.437 10.6985 187.342 10.8246C187.311 10.8666 187.243 10.9349 187.138 11.0294C187.033 11.1239 186.891 11.2185 186.712 11.313C186.534 11.4076 186.313 11.4916 186.05 11.5651C185.798 11.6387 185.499 11.6754 185.152 11.6754C184.911 11.6754 184.674 11.6229 184.443 11.5179C184.212 11.4023 184.007 11.2395 183.829 11.0294C183.65 10.8088 183.503 10.541 183.388 10.2258C183.272 9.90021 183.214 9.52206 183.214 9.09139C183.214 8.68172 183.267 8.29832 183.372 7.94118C183.477 7.58403 183.608 7.26891 183.766 6.9958C183.934 6.72269 184.118 6.50735 184.317 6.34979C184.517 6.19223 184.711 6.11345 184.9 6.11345C185.068 6.11345 185.236 6.15021 185.404 6.22374C185.583 6.28676 185.74 6.3708 185.877 6.47584C186.024 6.58088 186.14 6.70168 186.224 6.83824C186.308 6.96429 186.35 7.09559 186.35 7.23214C186.35 7.38971 186.276 7.55252 186.129 7.72059C185.993 7.88866 185.825 8.04622 185.625 8.19328C185.425 8.32983 185.226 8.44538 185.026 8.53992C184.827 8.62395 184.669 8.66597 184.554 8.66597C184.49 8.66597 184.433 8.63971 184.38 8.58718C184.338 8.52416 184.317 8.45063 184.317 8.3666C184.317 8.21954 184.38 8.10399 184.506 8.01996C184.643 7.93592 184.79 7.8624 184.947 7.79937C185.105 7.72584 185.247 7.64181 185.373 7.54727C185.509 7.45273 185.578 7.32143 185.578 7.15336C185.578 7.13235 185.551 7.07983 185.499 6.9958C185.446 6.91176 185.305 6.86975 185.073 6.86975C184.968 6.86975 184.848 6.93277 184.711 7.05882C184.575 7.17437 184.443 7.33718 184.317 7.54727C184.191 7.74685 184.086 7.98844 184.002 8.27206C183.918 8.54517 183.876 8.84454 183.876 9.17017C183.876 9.44328 183.923 9.69013 184.018 9.91071C184.123 10.1313 184.254 10.3204 184.412 10.4779C184.569 10.625 184.753 10.7405 184.963 10.8246C185.173 10.9086 185.389 10.9506 185.609 10.9506C185.767 10.9506 185.935 10.9191 186.113 10.8561C186.302 10.7826 186.476 10.709 186.633 10.6355C186.801 10.5515 186.943 10.4779 187.059 10.4149C187.185 10.3414 187.264 10.3046 187.295 10.3046C187.327 10.3046 187.358 10.3204 187.39 10.3519C187.432 10.3834 187.458 10.4149 187.468 10.4464Z" fill="#050608"/>
<path d="M194.254 9.18592C194.306 9.23845 194.332 9.26996 194.332 9.28046C194.332 9.30147 194.301 9.3645 194.238 9.46954C194.185 9.57458 194.112 9.68487 194.017 9.80042C193.923 9.91597 193.818 10.021 193.702 10.1155C193.597 10.1996 193.492 10.2416 193.387 10.2416C193.166 10.2416 192.988 10.1996 192.851 10.1155C192.715 10.021 192.599 9.90546 192.505 9.76891C192.421 9.63235 192.352 9.48529 192.3 9.32773C192.258 9.15966 192.221 9.0021 192.19 8.85504C192.169 8.78151 192.148 8.74475 192.127 8.74475C192.095 8.74475 192.032 8.86029 191.937 9.09139C191.843 9.31197 191.738 9.55882 191.622 9.83193C191.517 10.0945 191.412 10.3414 191.307 10.5725C191.213 10.7931 191.15 10.9034 191.118 10.9034C190.929 10.9034 190.766 10.8246 190.63 10.667C190.504 10.4989 190.399 10.3099 190.315 10.0998C190.241 9.8792 190.183 9.65861 190.141 9.43803C190.099 9.20693 190.073 9.02836 190.062 8.90231C190.031 8.6187 189.963 8.14601 189.858 7.48424C189.753 6.82248 189.663 6.01891 189.59 5.07353C189.569 4.87395 189.542 4.69538 189.511 4.53782C189.49 4.36975 189.464 4.18592 189.432 3.98634C189.401 3.78676 189.374 3.56092 189.353 3.30882C189.332 3.05672 189.322 2.74685 189.322 2.3792C189.322 2.35819 189.327 2.28992 189.338 2.17437C189.348 2.05882 189.364 1.93277 189.385 1.79622C189.406 1.65966 189.437 1.53886 189.479 1.43382C189.532 1.32878 189.59 1.27626 189.653 1.27626C189.726 1.27626 189.795 1.32353 189.858 1.41807C189.921 1.5021 189.973 1.60189 190.015 1.71744C190.068 1.83298 190.104 1.94328 190.125 2.04832C190.146 2.15336 190.157 2.22689 190.157 2.26891C190.157 2.42647 190.146 2.57353 190.125 2.71008C190.104 2.84664 190.094 2.97269 190.094 3.08824C190.094 3.2458 190.104 3.44538 190.125 3.68697C190.157 3.92857 190.194 4.17542 190.236 4.42752C190.278 4.67962 190.315 4.92647 190.346 5.16807C190.378 5.39916 190.404 5.58824 190.425 5.73529C190.425 5.7458 190.435 5.81933 190.456 5.95588C190.477 6.09244 190.498 6.26576 190.519 6.47584C190.551 6.67542 190.577 6.89601 190.598 7.13761C190.63 7.3687 190.661 7.59979 190.693 7.83088C190.724 8.05147 190.75 8.25105 190.771 8.42962C190.803 8.59769 190.824 8.71849 190.834 8.79202C190.834 8.82353 190.84 8.8708 190.85 8.93382C190.871 8.98635 190.887 9.04937 190.898 9.1229C190.919 9.19643 190.94 9.26471 190.961 9.32773C190.982 9.39076 191.008 9.43803 191.039 9.46954C191.102 9.34349 191.181 9.14916 191.276 8.88655C191.381 8.62395 191.486 8.35609 191.591 8.08298C191.706 7.80987 191.811 7.57353 191.906 7.37395C192.011 7.16387 192.1 7.05882 192.174 7.05882C192.258 7.05882 192.326 7.07458 192.379 7.10609C192.431 7.13761 192.499 7.16387 192.583 7.18487C192.688 7.22689 192.741 7.28466 192.741 7.35819C192.741 7.42122 192.752 7.5 192.773 7.59454C192.794 7.72059 192.825 7.88866 192.867 8.09874C192.92 8.29832 192.977 8.4979 193.04 8.69748C193.103 8.88655 193.177 9.04937 193.261 9.18592C193.345 9.32248 193.429 9.39076 193.513 9.39076C193.555 9.39076 193.613 9.33824 193.686 9.23319C193.76 9.11765 193.86 9.05462 193.986 9.04412C194.007 9.04412 194.044 9.05987 194.096 9.09139C194.149 9.11239 194.201 9.14391 194.254 9.18592Z" fill="#050608"/>
<path d="M198.709 8.69748C198.709 8.92857 198.678 9.14916 198.615 9.35924C198.552 9.56933 198.468 9.75315 198.363 9.91071C198.258 10.0683 198.132 10.1943 197.985 10.2889C197.848 10.3729 197.696 10.4149 197.528 10.4149C197.233 10.4149 197.002 10.3309 196.834 10.1628C196.666 9.99475 196.535 9.80042 196.44 9.57983C196.356 9.35924 196.299 9.13866 196.267 8.91807C196.246 8.68698 196.236 8.51366 196.236 8.39811C196.236 8.20903 196.262 7.99895 196.314 7.76786C196.377 7.52626 196.456 7.30567 196.551 7.10609C196.656 6.90651 196.771 6.73845 196.897 6.60189C197.023 6.46534 197.155 6.39706 197.291 6.39706C197.323 6.39706 197.37 6.40756 197.433 6.42857C197.507 6.44958 197.58 6.48109 197.654 6.52311C197.727 6.56513 197.79 6.61765 197.843 6.68067C197.906 6.7437 197.948 6.81723 197.969 6.90126C198.084 6.91176 198.2 6.95378 198.315 7.02731C198.431 7.10084 198.494 7.15861 198.505 7.20063C198.589 7.47374 198.641 7.74685 198.662 8.01996C198.694 8.29307 198.709 8.51891 198.709 8.69748ZM198 8.41387C198 8.2563 197.985 8.09349 197.953 7.92542C197.922 7.74685 197.858 7.56828 197.764 7.38971C197.743 7.40021 197.717 7.40546 197.685 7.40546C197.643 7.40546 197.606 7.40021 197.575 7.38971C197.554 7.3792 197.533 7.37395 197.512 7.37395C197.386 7.37395 197.286 7.41071 197.212 7.48424C197.139 7.54727 197.081 7.63656 197.039 7.7521C197.008 7.85714 196.987 7.97269 196.976 8.09874C196.966 8.22479 196.96 8.34559 196.96 8.46113C196.96 8.57668 196.966 8.70798 196.976 8.85504C196.987 8.9916 197.008 9.1229 197.039 9.24895C197.081 9.375 197.134 9.48529 197.197 9.57983C197.26 9.66387 197.344 9.70588 197.449 9.70588C197.554 9.70588 197.643 9.65336 197.717 9.54832C197.79 9.43277 197.848 9.30147 197.89 9.15441C197.932 9.00735 197.958 8.86555 197.969 8.72899C197.99 8.58193 198 8.47689 198 8.41387Z" fill="#050608"/>
<path d="M203.031 11.6439C203.031 11.7279 202.999 11.791 202.936 11.833C202.873 11.875 202.8 11.896 202.716 11.896C202.621 11.896 202.521 11.8067 202.416 11.6282C202.322 11.4496 202.227 11.2237 202.133 10.9506C202.038 10.6775 201.949 10.3834 201.865 10.0683C201.781 9.74265 201.707 9.44328 201.644 9.17017C201.581 8.88655 201.529 8.65021 201.487 8.46113C201.455 8.27206 201.439 8.16702 201.439 8.14601C201.439 8.10399 201.418 7.9937 201.376 7.81513C201.345 7.63655 201.298 7.35819 201.235 6.98004C201.182 6.60189 201.119 6.11345 201.046 5.51471C200.983 4.90546 200.914 4.15441 200.841 3.26155C200.841 3.16702 200.856 3.04622 200.888 2.89916C200.92 2.7521 200.993 2.67857 201.109 2.67857C201.256 2.67857 201.366 2.77836 201.439 2.97794C201.524 3.17752 201.587 3.42437 201.629 3.71849C201.681 4.01261 201.718 4.32248 201.739 4.64811C201.76 4.96324 201.786 5.2416 201.818 5.48319C201.86 5.81933 201.896 6.12395 201.928 6.39706C201.97 6.67017 202.007 6.94328 202.038 7.21639C202.08 7.47899 202.128 7.75735 202.18 8.05147C202.243 8.34559 202.317 8.67122 202.401 9.02836L203.031 11.6439Z" fill="#050608"/>
<path d="M209.348 9.56408C209.348 9.6166 209.322 9.66912 209.269 9.72164C209.227 9.76366 209.201 9.81092 209.191 9.86345C209.191 9.97899 209.212 10.0893 209.254 10.1943C209.306 10.2994 209.332 10.4254 209.332 10.5725C209.332 10.709 209.29 10.7773 209.206 10.7773C209.101 10.7773 209.023 10.7931 208.97 10.8246C208.928 10.8456 208.849 10.8666 208.734 10.8876C208.671 10.8876 208.602 10.8298 208.529 10.7143C208.487 10.6618 208.45 10.5987 208.419 10.5252C208.419 10.5147 208.387 10.5357 208.324 10.5882C208.271 10.6408 208.177 10.7038 208.04 10.7773C207.914 10.8403 207.736 10.9034 207.505 10.9664C207.284 11.0189 207 11.0452 206.654 11.0452C206.36 11.0452 206.102 10.9821 205.882 10.8561C205.661 10.7195 205.477 10.5462 205.33 10.3361C205.194 10.1261 205.089 9.88971 205.015 9.6271C204.952 9.35399 204.921 9.08088 204.921 8.80777C204.921 8.55567 204.947 8.31933 204.999 8.09874C205.062 7.86765 205.146 7.66807 205.252 7.5C205.357 7.32143 205.488 7.17962 205.645 7.07458C205.803 6.96954 205.987 6.91702 206.197 6.91702C206.396 6.91702 206.596 6.98004 206.796 7.10609C206.995 7.23214 207.174 7.3687 207.331 7.51576C207.489 7.66282 207.615 7.79937 207.71 7.92542C207.815 8.04097 207.867 8.09874 207.867 8.09874C207.72 7.27941 207.589 6.53887 207.473 5.8771C207.421 5.59349 207.368 5.31513 207.316 5.04202C207.274 4.7584 207.232 4.5063 207.19 4.28571C207.148 4.06513 207.111 3.8813 207.079 3.73424C207.058 3.57668 207.048 3.48214 207.048 3.45063C207.037 3.3876 207.027 3.27731 207.016 3.11975C207.006 2.95168 206.995 2.77836 206.985 2.59979C206.974 2.42122 206.964 2.2584 206.953 2.11134C206.943 1.96429 206.932 1.86975 206.922 1.82773C206.89 1.72269 206.848 1.59139 206.796 1.43382C206.754 1.27626 206.733 1.18697 206.733 1.16597C206.733 1.11344 206.759 1.05042 206.811 0.97689C206.864 0.892857 206.932 0.85084 207.016 0.85084C207.079 0.85084 207.137 0.856092 207.19 0.866596C207.242 0.8771 207.289 0.908613 207.331 0.961134C207.373 1.01366 207.41 1.09769 207.442 1.21323C207.484 1.31828 207.52 1.47059 207.552 1.67017C207.562 1.77521 207.594 1.97479 207.646 2.26891C207.699 2.56303 207.752 2.8834 207.804 3.23004C207.857 3.57668 207.909 3.90756 207.962 4.22269C208.014 4.53782 208.051 4.76891 208.072 4.91597C208.124 5.31513 208.193 5.75105 208.277 6.22374C208.371 6.68592 208.466 7.13235 208.56 7.56303C208.655 7.9937 208.749 8.3771 208.844 8.71324C208.938 9.03887 209.023 9.25945 209.096 9.375C209.117 9.41702 209.159 9.44853 209.222 9.46954C209.285 9.48004 209.327 9.51155 209.348 9.56408ZM208.182 9.8792C208.172 9.84769 208.103 9.71639 207.977 9.48529C207.862 9.2437 207.71 8.98635 207.52 8.71324C207.342 8.42962 207.137 8.17752 206.906 7.95693C206.685 7.73634 206.47 7.62605 206.26 7.62605C206.081 7.62605 205.934 7.7626 205.819 8.03571C205.714 8.30882 205.661 8.62395 205.661 8.98109C205.661 9.38025 205.777 9.70063 206.008 9.94223C206.249 10.1838 206.517 10.3046 206.811 10.3046C207.063 10.3046 207.326 10.2626 207.599 10.1786C207.872 10.0945 208.067 9.99475 208.182 9.8792Z" fill="#050608"/>
</svg>
